<svg xmlns="http://www.w3.org/2000/svg" width="1170" height="429" viewBox="0 0 1170 429" role="img" aria-label="Grid preview of the ACES major-by-interest matrix. Opens an interactive version.">
<rect width="1170" height="429" rx="16" fill="#f7f4ef"/>
<rect x="22" y="22" width="34" height="34" rx="5" fill="#0C447C"/>
<rect x="22" y="61" width="34" height="34" rx="5" fill="#0C447C"/>
<rect x="22" y="100" width="34" height="34" rx="5" fill="#0C447C"/>
<rect x="22" y="139" width="34" height="34" rx="5" fill="#e6e2da"/>
<rect x="22" y="178" width="34" height="34" rx="5" fill="#0C447C"/>
<rect x="22" y="217" width="34" height="34" rx="5" fill="#0C447C"/>
<rect x="22" y="256" width="34" height="34" rx="5" fill="#e6e2da"/>
<rect x="22" y="295" width="34" height="34" rx="5" fill="#e6e2da"/>
<rect x="22" y="334" width="34" height="34" rx="5" fill="#0C447C"/>
<rect x="22" y="373" width="34" height="34" rx="5" fill="#0C447C"/>
<rect x="61" y="22" width="34" height="34" rx="5" fill="#185FA5"/>
<rect x="61" y="61" width="34" height="34" rx="5" fill="#185FA5"/>
<rect x="61" y="100" width="34" height="34" rx="5" fill="#e6e2da"/>
<rect x="61" y="139" width="34" height="34" rx="5" fill="#185FA5"/>
<rect x="61" y="178" width="34" height="34" rx="5" fill="#e6e2da"/>
<rect x="61" y="217" width="34" height="34" rx="5" fill="#e6e2da"/>
<rect x="61" y="256" width="34" height="34" rx="5" fill="#185FA5"/>
<rect x="61" y="295" width="34" height="34" rx="5" fill="#e6e2da"/>
<rect x="61" y="334" width="34" height="34" rx="5" fill="#185FA5"/>
<rect x="61" y="373" width="34" height="34" rx="5" fill="#185FA5"/>
<rect x="100" y="22" width="34" height="34" rx="5" fill="#378ADD"/>
<rect x="100" y="61" width="34" height="34" rx="5" fill="#e6e2da"/>
<rect x="100" y="100" width="34" height="34" rx="5" fill="#378ADD"/>
<rect x="100" y="139" width="34" height="34" rx="5" fill="#e6e2da"/>
<rect x="100" y="178" width="34" height="34" rx="5" fill="#378ADD"/>
<rect x="100" y="217" width="34" height="34" rx="5" fill="#e6e2da"/>
<rect x="100" y="256" width="34" height="34" rx="5" fill="#e6e2da"/>
<rect x="100" y="295" width="34" height="34" rx="5" fill="#378ADD"/>
<rect x="100" y="334" width="34" height="34" rx="5" fill="#378ADD"/>
<rect x="100" y="373" width="34" height="34" rx="5" fill="#e6e2da"/>
<rect x="139" y="22" width="34" height="34" rx="5" fill="#378ADD"/>
<rect x="139" y="61" width="34" height="34" rx="5" fill="#e6e2da"/>
<rect x="139" y="100" width="34" height="34" rx="5" fill="#e6e2da"/>
<rect x="139" y="139" width="34" height="34" rx="5" fill="#378ADD"/>
<rect x="139" y="178" width="34" height="34" rx="5" fill="#378ADD"/>
<rect x="139" y="217" width="34" height="34" rx="5" fill="#e6e2da"/>
<rect x="139" y="256" width="34" height="34" rx="5" fill="#e6e2da"/>
<rect x="139" y="295" width="34" height="34" rx="5" fill="#e6e2da"/>
<rect x="139" y="334" width="34" height="34" rx="5" fill="#378ADD"/>
<rect x="139" y="373" width="34" height="34" rx="5" fill="#378ADD"/>
<rect x="178" y="22" width="34" height="34" rx="5" fill="#378ADD"/>
<rect x="178" y="61" width="34" height="34" rx="5" fill="#378ADD"/>
<rect x="178" y="100" width="34" height="34" rx="5" fill="#378ADD"/>
<rect x="178" y="139" width="34" height="34" rx="5" fill="#e6e2da"/>
<rect x="178" y="178" width="34" height="34" rx="5" fill="#e6e2da"/>
<rect x="178" y="217" width="34" height="34" rx="5" fill="#e6e2da"/>
<rect x="178" y="256" width="34" height="34" rx="5" fill="#e6e2da"/>
<rect x="178" y="295" width="34" height="34" rx="5" fill="#e6e2da"/>
<rect x="178" y="334" width="34" height="34" rx="5" fill="#378ADD"/>
<rect x="178" y="373" width="34" height="34" rx="5" fill="#378ADD"/>
<rect x="217" y="22" width="34" height="34" rx="5" fill="#378ADD"/>
<rect x="217" y="61" width="34" height="34" rx="5" fill="#e6e2da"/>
<rect x="217" y="100" width="34" height="34" rx="5" fill="#e6e2da"/>
<rect x="217" y="139" width="34" height="34" rx="5" fill="#378ADD"/>
<rect x="217" y="178" width="34" height="34" rx="5" fill="#e6e2da"/>
<rect x="217" y="217" width="34" height="34" rx="5" fill="#378ADD"/>
<rect x="217" y="256" width="34" height="34" rx="5" fill="#e6e2da"/>
<rect x="217" y="295" width="34" height="34" rx="5" fill="#e6e2da"/>
<rect x="217" y="334" width="34" height="34" rx="5" fill="#378ADD"/>
<rect x="217" y="373" width="34" height="34" rx="5" fill="#378ADD"/>
<rect x="256" y="22" width="34" height="34" rx="5" fill="#85B7EB"/>
<rect x="256" y="61" width="34" height="34" rx="5" fill="#e6e2da"/>
<rect x="256" y="100" width="34" height="34" rx="5" fill="#e6e2da"/>
<rect x="256" y="139" width="34" height="34" rx="5" fill="#e6e2da"/>
<rect x="256" y="178" width="34" height="34" rx="5" fill="#85B7EB"/>
<rect x="256" y="217" width="34" height="34" rx="5" fill="#e6e2da"/>
<rect x="256" y="256" width="34" height="34" rx="5" fill="#85B7EB"/>
<rect x="256" y="295" width="34" height="34" rx="5" fill="#85B7EB"/>
<rect x="256" y="334" width="34" height="34" rx="5" fill="#e6e2da"/>
<rect x="256" y="373" width="34" height="34" rx="5" fill="#e6e2da"/>
<rect x="295" y="22" width="34" height="34" rx="5" fill="#85B7EB"/>
<rect x="295" y="61" width="34" height="34" rx="5" fill="#e6e2da"/>
<rect x="295" y="100" width="34" height="34" rx="5" fill="#e6e2da"/>
<rect x="295" y="139" width="34" height="34" rx="5" fill="#e6e2da"/>
<rect x="295" y="178" width="34" height="34" rx="5" fill="#85B7EB"/>
<rect x="295" y="217" width="34" height="34" rx="5" fill="#e6e2da"/>
<rect x="295" y="256" width="34" height="34" rx="5" fill="#e6e2da"/>
<rect x="295" y="295" width="34" height="34" rx="5" fill="#e6e2da"/>
<rect x="295" y="334" width="34" height="34" rx="5" fill="#85B7EB"/>
<rect x="295" y="373" width="34" height="34" rx="5" fill="#85B7EB"/>
<rect x="334" y="22" width="34" height="34" rx="5" fill="#85B7EB"/>
<rect x="334" y="61" width="34" height="34" rx="5" fill="#85B7EB"/>
<rect x="334" y="100" width="34" height="34" rx="5" fill="#e6e2da"/>
<rect x="334" y="139" width="34" height="34" rx="5" fill="#e6e2da"/>
<rect x="334" y="178" width="34" height="34" rx="5" fill="#85B7EB"/>
<rect x="334" y="217" width="34" height="34" rx="5" fill="#85B7EB"/>
<rect x="334" y="256" width="34" height="34" rx="5" fill="#e6e2da"/>
<rect x="334" y="295" width="34" height="34" rx="5" fill="#e6e2da"/>
<rect x="334" y="334" width="34" height="34" rx="5" fill="#e6e2da"/>
<rect x="334" y="373" width="34" height="34" rx="5" fill="#e6e2da"/>
<rect x="373" y="22" width="34" height="34" rx="5" fill="#85B7EB"/>
<rect x="373" y="61" width="34" height="34" rx="5" fill="#85B7EB"/>
<rect x="373" y="100" width="34" height="34" rx="5" fill="#e6e2da"/>
<rect x="373" y="139" width="34" height="34" rx="5" fill="#85B7EB"/>
<rect x="373" y="178" width="34" height="34" rx="5" fill="#e6e2da"/>
<rect x="373" y="217" width="34" height="34" rx="5" fill="#85B7EB"/>
<rect x="373" y="256" width="34" height="34" rx="5" fill="#e6e2da"/>
<rect x="373" y="295" width="34" height="34" rx="5" fill="#e6e2da"/>
<rect x="373" y="334" width="34" height="34" rx="5" fill="#e6e2da"/>
<rect x="373" y="373" width="34" height="34" rx="5" fill="#e6e2da"/>
<rect x="412" y="22" width="34" height="34" rx="5" fill="#85B7EB"/>
<rect x="412" y="61" width="34" height="34" rx="5" fill="#e6e2da"/>
<rect x="412" y="100" width="34" height="34" rx="5" fill="#e6e2da"/>
<rect x="412" y="139" width="34" height="34" rx="5" fill="#85B7EB"/>
<rect x="412" y="178" width="34" height="34" rx="5" fill="#e6e2da"/>
<rect x="412" y="217" width="34" height="34" rx="5" fill="#e6e2da"/>
<rect x="412" y="256" width="34" height="34" rx="5" fill="#e6e2da"/>
<rect x="412" y="295" width="34" height="34" rx="5" fill="#e6e2da"/>
<rect x="412" y="334" width="34" height="34" rx="5" fill="#85B7EB"/>
<rect x="412" y="373" width="34" height="34" rx="5" fill="#85B7EB"/>
<rect x="451" y="22" width="34" height="34" rx="5" fill="#85B7EB"/>
<rect x="451" y="61" width="34" height="34" rx="5" fill="#e6e2da"/>
<rect x="451" y="100" width="34" height="34" rx="5" fill="#e6e2da"/>
<rect x="451" y="139" width="34" height="34" rx="5" fill="#e6e2da"/>
<rect x="451" y="178" width="34" height="34" rx="5" fill="#85B7EB"/>
<rect x="451" y="217" width="34" height="34" rx="5" fill="#e6e2da"/>
<rect x="451" y="256" width="34" height="34" rx="5" fill="#e6e2da"/>
<rect x="451" y="295" width="34" height="34" rx="5" fill="#e6e2da"/>
<rect x="451" y="334" width="34" height="34" rx="5" fill="#85B7EB"/>
<rect x="451" y="373" width="34" height="34" rx="5" fill="#85B7EB"/>
<rect x="490" y="22" width="34" height="34" rx="5" fill="#85B7EB"/>
<rect x="490" y="61" width="34" height="34" rx="5" fill="#e6e2da"/>
<rect x="490" y="100" width="34" height="34" rx="5" fill="#e6e2da"/>
<rect x="490" y="139" width="34" height="34" rx="5" fill="#85B7EB"/>
<rect x="490" y="178" width="34" height="34" rx="5" fill="#85B7EB"/>
<rect x="490" y="217" width="34" height="34" rx="5" fill="#e6e2da"/>
<rect x="490" y="256" width="34" height="34" rx="5" fill="#e6e2da"/>
<rect x="490" y="295" width="34" height="34" rx="5" fill="#e6e2da"/>
<rect x="490" y="334" width="34" height="34" rx="5" fill="#e6e2da"/>
<rect x="490" y="373" width="34" height="34" rx="5" fill="#85B7EB"/>
<rect x="529" y="22" width="34" height="34" rx="5" fill="#e6e2da"/>
<rect x="529" y="61" width="34" height="34" rx="5" fill="#e6e2da"/>
<rect x="529" y="100" width="34" height="34" rx="5" fill="#85B7EB"/>
<rect x="529" y="139" width="34" height="34" rx="5" fill="#e6e2da"/>
<rect x="529" y="178" width="34" height="34" rx="5" fill="#85B7EB"/>
<rect x="529" y="217" width="34" height="34" rx="5" fill="#85B7EB"/>
<rect x="529" y="256" width="34" height="34" rx="5" fill="#e6e2da"/>
<rect x="529" y="295" width="34" height="34" rx="5" fill="#e6e2da"/>
<rect x="529" y="334" width="34" height="34" rx="5" fill="#e6e2da"/>
<rect x="529" y="373" width="34" height="34" rx="5" fill="#85B7EB"/>
<rect x="568" y="22" width="34" height="34" rx="5" fill="#85B7EB"/>
<rect x="568" y="61" width="34" height="34" rx="5" fill="#85B7EB"/>
<rect x="568" y="100" width="34" height="34" rx="5" fill="#85B7EB"/>
<rect x="568" y="139" width="34" height="34" rx="5" fill="#e6e2da"/>
<rect x="568" y="178" width="34" height="34" rx="5" fill="#e6e2da"/>
<rect x="568" y="217" width="34" height="34" rx="5" fill="#e6e2da"/>
<rect x="568" y="256" width="34" height="34" rx="5" fill="#e6e2da"/>
<rect x="568" y="295" width="34" height="34" rx="5" fill="#e6e2da"/>
<rect x="568" y="334" width="34" height="34" rx="5" fill="#85B7EB"/>
<rect x="568" y="373" width="34" height="34" rx="5" fill="#e6e2da"/>
<rect x="607" y="22" width="34" height="34" rx="5" fill="#e6e2da"/>
<rect x="607" y="61" width="34" height="34" rx="5" fill="#e6e2da"/>
<rect x="607" y="100" width="34" height="34" rx="5" fill="#85B7EB"/>
<rect x="607" y="139" width="34" height="34" rx="5" fill="#e6e2da"/>
<rect x="607" y="178" width="34" height="34" rx="5" fill="#85B7EB"/>
<rect x="607" y="217" width="34" height="34" rx="5" fill="#e6e2da"/>
<rect x="607" y="256" width="34" height="34" rx="5" fill="#e6e2da"/>
<rect x="607" y="295" width="34" height="34" rx="5" fill="#85B7EB"/>
<rect x="607" y="334" width="34" height="34" rx="5" fill="#e6e2da"/>
<rect x="607" y="373" width="34" height="34" rx="5" fill="#85B7EB"/>
<rect x="646" y="22" width="34" height="34" rx="5" fill="#85B7EB"/>
<rect x="646" y="61" width="34" height="34" rx="5" fill="#e6e2da"/>
<rect x="646" y="100" width="34" height="34" rx="5" fill="#85B7EB"/>
<rect x="646" y="139" width="34" height="34" rx="5" fill="#e6e2da"/>
<rect x="646" y="178" width="34" height="34" rx="5" fill="#85B7EB"/>
<rect x="646" y="217" width="34" height="34" rx="5" fill="#e6e2da"/>
<rect x="646" y="256" width="34" height="34" rx="5" fill="#e6e2da"/>
<rect x="646" y="295" width="34" height="34" rx="5" fill="#e6e2da"/>
<rect x="646" y="334" width="34" height="34" rx="5" fill="#e6e2da"/>
<rect x="646" y="373" width="34" height="34" rx="5" fill="#e6e2da"/>
<rect x="685" y="22" width="34" height="34" rx="5" fill="#85B7EB"/>
<rect x="685" y="61" width="34" height="34" rx="5" fill="#e6e2da"/>
<rect x="685" y="100" width="34" height="34" rx="5" fill="#e6e2da"/>
<rect x="685" y="139" width="34" height="34" rx="5" fill="#e6e2da"/>
<rect x="685" y="178" width="34" height="34" rx="5" fill="#e6e2da"/>
<rect x="685" y="217" width="34" height="34" rx="5" fill="#e6e2da"/>
<rect x="685" y="256" width="34" height="34" rx="5" fill="#85B7EB"/>
<rect x="685" y="295" width="34" height="34" rx="5" fill="#85B7EB"/>
<rect x="685" y="334" width="34" height="34" rx="5" fill="#e6e2da"/>
<rect x="685" y="373" width="34" height="34" rx="5" fill="#e6e2da"/>
<rect x="724" y="22" width="34" height="34" rx="5" fill="#e6e2da"/>
<rect x="724" y="61" width="34" height="34" rx="5" fill="#e6e2da"/>
<rect x="724" y="100" width="34" height="34" rx="5" fill="#e6e2da"/>
<rect x="724" y="139" width="34" height="34" rx="5" fill="#e6e2da"/>
<rect x="724" y="178" width="34" height="34" rx="5" fill="#85B7EB"/>
<rect x="724" y="217" width="34" height="34" rx="5" fill="#85B7EB"/>
<rect x="724" y="256" width="34" height="34" rx="5" fill="#e6e2da"/>
<rect x="724" y="295" width="34" height="34" rx="5" fill="#85B7EB"/>
<rect x="724" y="334" width="34" height="34" rx="5" fill="#e6e2da"/>
<rect x="724" y="373" width="34" height="34" rx="5" fill="#e6e2da"/>
<rect x="763" y="22" width="34" height="34" rx="5" fill="#e6e2da"/>
<rect x="763" y="61" width="34" height="34" rx="5" fill="#e6e2da"/>
<rect x="763" y="100" width="34" height="34" rx="5" fill="#e6e2da"/>
<rect x="763" y="139" width="34" height="34" rx="5" fill="#e6e2da"/>
<rect x="763" y="178" width="34" height="34" rx="5" fill="#85B7EB"/>
<rect x="763" y="217" width="34" height="34" rx="5" fill="#85B7EB"/>
<rect x="763" y="256" width="34" height="34" rx="5" fill="#e6e2da"/>
<rect x="763" y="295" width="34" height="34" rx="5" fill="#85B7EB"/>
<rect x="763" y="334" width="34" height="34" rx="5" fill="#e6e2da"/>
<rect x="763" y="373" width="34" height="34" rx="5" fill="#e6e2da"/>
<rect x="802" y="22" width="34" height="34" rx="5" fill="#e6e2da"/>
<rect x="802" y="61" width="34" height="34" rx="5" fill="#e6e2da"/>
<rect x="802" y="100" width="34" height="34" rx="5" fill="#e6e2da"/>
<rect x="802" y="139" width="34" height="34" rx="5" fill="#e6e2da"/>
<rect x="802" y="178" width="34" height="34" rx="5" fill="#85B7EB"/>
<rect x="802" y="217" width="34" height="34" rx="5" fill="#85B7EB"/>
<rect x="802" y="256" width="34" height="34" rx="5" fill="#e6e2da"/>
<rect x="802" y="295" width="34" height="34" rx="5" fill="#85B7EB"/>
<rect x="802" y="334" width="34" height="34" rx="5" fill="#e6e2da"/>
<rect x="802" y="373" width="34" height="34" rx="5" fill="#e6e2da"/>
<rect x="841" y="22" width="34" height="34" rx="5" fill="#e6e2da"/>
<rect x="841" y="61" width="34" height="34" rx="5" fill="#e6e2da"/>
<rect x="841" y="100" width="34" height="34" rx="5" fill="#85B7EB"/>
<rect x="841" y="139" width="34" height="34" rx="5" fill="#e6e2da"/>
<rect x="841" y="178" width="34" height="34" rx="5" fill="#e6e2da"/>
<rect x="841" y="217" width="34" height="34" rx="5" fill="#85B7EB"/>
<rect x="841" y="256" width="34" height="34" rx="5" fill="#e6e2da"/>
<rect x="841" y="295" width="34" height="34" rx="5" fill="#85B7EB"/>
<rect x="841" y="334" width="34" height="34" rx="5" fill="#e6e2da"/>
<rect x="841" y="373" width="34" height="34" rx="5" fill="#e6e2da"/>
<rect x="880" y="22" width="34" height="34" rx="5" fill="#e6e2da"/>
<rect x="880" y="61" width="34" height="34" rx="5" fill="#e6e2da"/>
<rect x="880" y="100" width="34" height="34" rx="5" fill="#e6e2da"/>
<rect x="880" y="139" width="34" height="34" rx="5" fill="#e6e2da"/>
<rect x="880" y="178" width="34" height="34" rx="5" fill="#85B7EB"/>
<rect x="880" y="217" width="34" height="34" rx="5" fill="#85B7EB"/>
<rect x="880" y="256" width="34" height="34" rx="5" fill="#e6e2da"/>
<rect x="880" y="295" width="34" height="34" rx="5" fill="#85B7EB"/>
<rect x="880" y="334" width="34" height="34" rx="5" fill="#e6e2da"/>
<rect x="880" y="373" width="34" height="34" rx="5" fill="#e6e2da"/>
<rect x="919" y="22" width="34" height="34" rx="5" fill="#85B7EB"/>
<rect x="919" y="61" width="34" height="34" rx="5" fill="#e6e2da"/>
<rect x="919" y="100" width="34" height="34" rx="5" fill="#e6e2da"/>
<rect x="919" y="139" width="34" height="34" rx="5" fill="#e6e2da"/>
<rect x="919" y="178" width="34" height="34" rx="5" fill="#85B7EB"/>
<rect x="919" y="217" width="34" height="34" rx="5" fill="#e6e2da"/>
<rect x="919" y="256" width="34" height="34" rx="5" fill="#e6e2da"/>
<rect x="919" y="295" width="34" height="34" rx="5" fill="#e6e2da"/>
<rect x="919" y="334" width="34" height="34" rx="5" fill="#85B7EB"/>
<rect x="919" y="373" width="34" height="34" rx="5" fill="#e6e2da"/>
<rect x="958" y="22" width="34" height="34" rx="5" fill="#cfe2f6"/>
<rect x="958" y="61" width="34" height="34" rx="5" fill="#e6e2da"/>
<rect x="958" y="100" width="34" height="34" rx="5" fill="#cfe2f6"/>
<rect x="958" y="139" width="34" height="34" rx="5" fill="#e6e2da"/>
<rect x="958" y="178" width="34" height="34" rx="5" fill="#e6e2da"/>
<rect x="958" y="217" width="34" height="34" rx="5" fill="#e6e2da"/>
<rect x="958" y="256" width="34" height="34" rx="5" fill="#e6e2da"/>
<rect x="958" y="295" width="34" height="34" rx="5" fill="#e6e2da"/>
<rect x="958" y="334" width="34" height="34" rx="5" fill="#e6e2da"/>
<rect x="958" y="373" width="34" height="34" rx="5" fill="#e6e2da"/>
<rect x="997" y="22" width="34" height="34" rx="5" fill="#e6e2da"/>
<rect x="997" y="61" width="34" height="34" rx="5" fill="#e6e2da"/>
<rect x="997" y="100" width="34" height="34" rx="5" fill="#cfe2f6"/>
<rect x="997" y="139" width="34" height="34" rx="5" fill="#e6e2da"/>
<rect x="997" y="178" width="34" height="34" rx="5" fill="#e6e2da"/>
<rect x="997" y="217" width="34" height="34" rx="5" fill="#e6e2da"/>
<rect x="997" y="256" width="34" height="34" rx="5" fill="#e6e2da"/>
<rect x="997" y="295" width="34" height="34" rx="5" fill="#cfe2f6"/>
<rect x="997" y="334" width="34" height="34" rx="5" fill="#e6e2da"/>
<rect x="997" y="373" width="34" height="34" rx="5" fill="#e6e2da"/>
<rect x="1036" y="22" width="34" height="34" rx="5" fill="#e6e2da"/>
<rect x="1036" y="61" width="34" height="34" rx="5" fill="#e6e2da"/>
<rect x="1036" y="100" width="34" height="34" rx="5" fill="#cfe2f6"/>
<rect x="1036" y="139" width="34" height="34" rx="5" fill="#e6e2da"/>
<rect x="1036" y="178" width="34" height="34" rx="5" fill="#e6e2da"/>
<rect x="1036" y="217" width="34" height="34" rx="5" fill="#e6e2da"/>
<rect x="1036" y="256" width="34" height="34" rx="5" fill="#e6e2da"/>
<rect x="1036" y="295" width="34" height="34" rx="5" fill="#cfe2f6"/>
<rect x="1036" y="334" width="34" height="34" rx="5" fill="#e6e2da"/>
<rect x="1036" y="373" width="34" height="34" rx="5" fill="#e6e2da"/>
<rect x="1075" y="22" width="34" height="34" rx="5" fill="#e6e2da"/>
<rect x="1075" y="61" width="34" height="34" rx="5" fill="#e6e2da"/>
<rect x="1075" y="100" width="34" height="34" rx="5" fill="#e6e2da"/>
<rect x="1075" y="139" width="34" height="34" rx="5" fill="#e6e2da"/>
<rect x="1075" y="178" width="34" height="34" rx="5" fill="#e6e2da"/>
<rect x="1075" y="217" width="34" height="34" rx="5" fill="#e6e2da"/>
<rect x="1075" y="256" width="34" height="34" rx="5" fill="#cfe2f6"/>
<rect x="1075" y="295" width="34" height="34" rx="5" fill="#cfe2f6"/>
<rect x="1075" y="334" width="34" height="34" rx="5" fill="#e6e2da"/>
<rect x="1075" y="373" width="34" height="34" rx="5" fill="#e6e2da"/>
<rect x="1114" y="22" width="34" height="34" rx="5" fill="#e6e2da"/>
<rect x="1114" y="61" width="34" height="34" rx="5" fill="#e6e2da"/>
<rect x="1114" y="100" width="34" height="34" rx="5" fill="#e6e2da"/>
<rect x="1114" y="139" width="34" height="34" rx="5" fill="#e6e2da"/>
<rect x="1114" y="178" width="34" height="34" rx="5" fill="#e6e2da"/>
<rect x="1114" y="217" width="34" height="34" rx="5" fill="#e6e2da"/>
<rect x="1114" y="256" width="34" height="34" rx="5" fill="#cfe2f6"/>
<rect x="1114" y="295" width="34" height="34" rx="5" fill="#e6e2da"/>
<rect x="1114" y="334" width="34" height="34" rx="5" fill="#e6e2da"/>
<rect x="1114" y="373" width="34" height="34" rx="5" fill="#e6e2da"/>
</svg>