<svg width="949" height="478" viewBox="0 0 949 478" fill="none" xmlns="http://www.w3.org/2000/svg">
<path d="M566 53.0379L552.009 42.8271L550.162 60.0488L566 53.0379ZM478 48V49.5C503.495 49.5 528.388 50.7364 552.434 53.0911L552.58 51.5983L552.726 50.1054C528.582 47.7411 503.591 46.5 478 46.5V48ZM449 48.5359L449.056 50.0349C458.607 49.6805 468.26 49.5 478 49.5V48V46.5C468.222 46.5 458.533 46.6812 448.944 47.0369L449 48.5359Z" fill="#696360"/>
<path d="M834.06 175L832.493 157.75L818.338 167.732L834.06 175ZM779 121.795L778.173 123.046C797.528 135.846 813.379 149.905 825.098 164.89L826.28 163.966L827.461 163.042C815.5 147.748 799.388 133.479 779.827 120.544L779 121.795Z" fill="#696360"/>
<path d="M582 398.911L598.117 405.254L595.552 388.124L582 398.911ZM829.319 286L828.105 285.119C790.571 336.872 704.277 377.982 595.114 395.43L595.35 396.911L595.587 398.393C705.015 380.902 792.294 339.606 830.533 286.881L829.319 286Z" fill="#696360"/>
<path d="M125.962 285L128.428 302.144L142.042 291.437L125.962 285ZM389 400.845L389.176 399.355C273.813 385.727 179.957 346.196 135.449 294.638L134.313 295.619L133.178 296.599C178.409 348.993 273.169 388.672 388.824 402.334L389 400.845Z" fill="#696360"/>
<path d="M182 118.565L164.715 119.671L174.315 134.088L182 118.565ZM122.577 174L123.838 174.812C134.801 157.77 151.012 141.773 171.626 127.275L170.763 126.048L169.9 124.821C149.055 139.481 132.538 155.743 121.315 173.188L122.577 174Z" fill="#696360"/>
<rect x="24" y="184" width="130" height="90" rx="12" fill="#5D7695"/>
<rect x="24" y="184" width="130" height="90" rx="12" stroke="#42546A" stroke-width="2"/>
<path d="M61.1573 220V207.856H57.0403V205.004H68.6783V207.856H64.5613V220H61.1573ZM70.7406 220V208.592H74.1216V220H70.7406ZM72.4196 206.913C71.8523 206.913 71.3923 206.752 71.0396 206.43C70.6869 206.108 70.5106 205.679 70.5106 205.142C70.5106 204.605 70.6869 204.176 71.0396 203.854C71.3923 203.532 71.8523 203.371 72.4196 203.371C72.9869 203.371 73.4469 203.532 73.7996 203.854C74.1523 204.176 74.3286 204.605 74.3286 205.142C74.3286 205.679 74.1523 206.108 73.7996 206.43C73.4469 206.752 72.9869 206.913 72.4196 206.913ZM82.2031 220.276C81.1144 220.276 80.1331 220.038 79.2591 219.563C78.3851 219.088 77.6951 218.405 77.1891 217.516C76.6831 216.627 76.4301 215.553 76.4301 214.296C76.4301 213.054 76.6831 211.988 77.1891 211.099C77.7104 210.21 78.3851 209.527 79.2131 209.052C80.0411 208.561 80.9074 208.316 81.8121 208.316C82.9007 208.316 83.8054 208.561 84.5261 209.052C85.2467 209.527 85.7834 210.179 86.1361 211.007C86.4887 211.835 86.6651 212.763 86.6651 213.79C86.6651 214.081 86.6497 214.373 86.6191 214.664C86.5884 214.94 86.5577 215.162 86.5271 215.331H79.0521L79.0061 212.985H83.7671C83.7671 212.387 83.6214 211.896 83.3301 211.513C83.0387 211.114 82.5557 210.915 81.8811 210.915C81.5131 210.915 81.1527 211.015 80.8001 211.214C80.4474 211.413 80.1561 211.758 79.9261 212.249C79.6961 212.74 79.5887 213.422 79.6041 214.296C79.6194 215.155 79.7727 215.829 80.0641 216.32C80.3707 216.811 80.7541 217.163 81.2141 217.378C81.6741 217.577 82.1571 217.677 82.6631 217.677C83.1077 217.677 83.5294 217.616 83.9281 217.493C84.3421 217.355 84.7484 217.171 85.1471 216.941L86.2511 219.011C85.6837 219.41 85.0397 219.724 84.3191 219.954C83.5984 220.169 82.8931 220.276 82.2031 220.276ZM89.0013 220V208.592H91.7613L91.9913 210.593H92.0833C92.4973 209.826 92.988 209.259 93.5553 208.891C94.138 208.508 94.7283 208.316 95.3263 208.316C95.6483 208.316 95.9167 208.339 96.1313 208.385C96.346 208.416 96.53 208.469 96.6833 208.546L96.0393 211.421C95.8553 211.375 95.679 211.344 95.5103 211.329C95.3417 211.298 95.1347 211.283 94.8893 211.283C94.46 211.283 94.0077 211.436 93.5323 211.743C93.0723 212.05 92.689 212.594 92.3823 213.376V220H89.0013ZM103.047 220.276C101.958 220.276 100.977 220.038 100.103 219.563C99.2288 219.088 98.5388 218.405 98.0328 217.516C97.5268 216.627 97.2738 215.553 97.2738 214.296C97.2738 213.054 97.5268 211.988 98.0328 211.099C98.5541 210.21 99.2288 209.527 100.057 209.052C100.885 208.561 101.751 208.316 102.656 208.316C103.744 208.316 104.649 208.561 105.37 209.052C106.09 209.527 106.627 210.179 106.98 211.007C107.332 211.835 107.509 212.763 107.509 213.79C107.509 214.081 107.493 214.373 107.463 214.664C107.432 214.94 107.401 215.162 107.371 215.331H99.8958L99.8498 212.985H104.611C104.611 212.387 104.465 211.896 104.174 211.513C103.882 211.114 103.399 210.915 102.725 210.915C102.357 210.915 101.996 211.015 101.644 211.214C101.291 211.413 101 211.758 100.77 212.249C100.54 212.74 100.432 213.422 100.448 214.296C100.463 215.155 100.616 215.829 100.908 216.32C101.214 216.811 101.598 217.163 102.058 217.378C102.518 217.577 103.001 217.677 103.507 217.677C103.951 217.677 104.373 217.616 104.772 217.493C105.186 217.355 105.592 217.171 105.991 216.941L107.095 219.011C106.527 219.41 105.883 219.724 105.163 219.954C104.442 220.169 103.737 220.276 103.047 220.276ZM113.916 220.276C112.505 220.276 111.371 219.747 110.512 218.689C109.669 217.616 109.247 216.151 109.247 214.296C109.247 213.054 109.469 211.988 109.914 211.099C110.374 210.21 110.964 209.527 111.685 209.052C112.421 208.561 113.188 208.316 113.985 208.316C114.614 208.316 115.143 208.423 115.572 208.638C116.001 208.853 116.408 209.144 116.791 209.512L116.653 207.764V203.877H120.034V220H117.274L117.044 218.873H116.952C116.553 219.272 116.086 219.609 115.549 219.885C115.012 220.146 114.468 220.276 113.916 220.276ZM114.79 217.516C115.158 217.516 115.495 217.439 115.802 217.286C116.109 217.133 116.392 216.864 116.653 216.481V211.812C116.362 211.536 116.055 211.344 115.733 211.237C115.411 211.13 115.089 211.076 114.767 211.076C114.399 211.076 114.062 211.191 113.755 211.421C113.448 211.651 113.195 212.004 112.996 212.479C112.812 212.939 112.72 213.529 112.72 214.25C112.72 215.369 112.904 216.197 113.272 216.734C113.64 217.255 114.146 217.516 114.79 217.516ZM51.0311 253V241.592H53.7911L54.0211 243.593H54.1131C54.5271 242.826 55.0178 242.259 55.5851 241.891C56.1678 241.508 56.7581 241.316 57.3561 241.316C57.6781 241.316 57.9465 241.339 58.1611 241.385C58.3758 241.416 58.5598 241.469 58.7131 241.546L58.0691 244.421C57.8851 244.375 57.7088 244.344 57.5401 244.329C57.3715 244.298 57.1645 244.283 56.9191 244.283C56.4898 244.283 56.0375 244.436 55.5621 244.743C55.1021 245.05 54.7188 245.594 54.4121 246.376V253H51.0311ZM65.0766 253.276C63.9879 253.276 63.0066 253.038 62.1326 252.563C61.2586 252.088 60.5686 251.405 60.0626 250.516C59.5566 249.627 59.3036 248.553 59.3036 247.296C59.3036 246.054 59.5566 244.988 60.0626 244.099C60.5839 243.21 61.2586 242.527 62.0866 242.052C62.9146 241.561 63.7809 241.316 64.6856 241.316C65.7743 241.316 66.6789 241.561 67.3996 242.052C68.1203 242.527 68.6569 243.179 69.0096 244.007C69.3623 244.835 69.5386 245.763 69.5386 246.79C69.5386 247.081 69.5233 247.373 69.4926 247.664C69.4619 247.94 69.4313 248.162 69.4006 248.331H61.9256L61.8796 245.985H66.6406C66.6406 245.387 66.4949 244.896 66.2036 244.513C65.9123 244.114 65.4293 243.915 64.7546 243.915C64.3866 243.915 64.0263 244.015 63.6736 244.214C63.3209 244.413 63.0296 244.758 62.7996 245.249C62.5696 245.74 62.4623 246.422 62.4776 247.296C62.4929 248.155 62.6463 248.829 62.9376 249.32C63.2443 249.811 63.6276 250.163 64.0876 250.378C64.5476 250.577 65.0306 250.677 65.5366 250.677C65.9813 250.677 66.4029 250.616 66.8016 250.493C67.2156 250.355 67.6219 250.171 68.0206 249.941L69.1246 252.011C68.5573 252.41 67.9133 252.724 67.1926 252.954C66.4719 253.169 65.7666 253.276 65.0766 253.276ZM74.3621 253L70.5211 241.592H73.9251L75.3971 246.974C75.5505 247.541 75.6961 248.116 75.8341 248.699C75.9875 249.282 76.1408 249.88 76.2941 250.493H76.3861C76.5241 249.88 76.6698 249.282 76.8231 248.699C76.9765 248.116 77.1221 247.541 77.2601 246.974L78.7551 241.592H81.9981L78.2721 253H74.3621ZM83.7792 253V241.592H87.1602V253H83.7792ZM85.4582 239.913C84.8908 239.913 84.4308 239.752 84.0782 239.43C83.7255 239.108 83.5492 238.679 83.5492 238.142C83.5492 237.605 83.7255 237.176 84.0782 236.854C84.4308 236.532 84.8908 236.371 85.4582 236.371C86.0255 236.371 86.4855 236.532 86.8382 236.854C87.1908 237.176 87.3672 237.605 87.3672 238.142C87.3672 238.679 87.1908 239.108 86.8382 239.43C86.4855 239.752 86.0255 239.913 85.4582 239.913ZM95.2416 253.276C94.153 253.276 93.1716 253.038 92.2976 252.563C91.4236 252.088 90.7336 251.405 90.2276 250.516C89.7216 249.627 89.4686 248.553 89.4686 247.296C89.4686 246.054 89.7216 244.988 90.2276 244.099C90.749 243.21 91.4236 242.527 92.2516 242.052C93.0796 241.561 93.946 241.316 94.8506 241.316C95.9393 241.316 96.844 241.561 97.5646 242.052C98.2853 242.527 98.822 243.179 99.1746 244.007C99.5273 244.835 99.7036 245.763 99.7036 246.79C99.7036 247.081 99.6883 247.373 99.6576 247.664C99.627 247.94 99.5963 248.162 99.5656 248.331H92.0906L92.0446 245.985H96.8056C96.8056 245.387 96.66 244.896 96.3686 244.513C96.0773 244.114 95.5943 243.915 94.9196 243.915C94.5516 243.915 94.1913 244.015 93.8386 244.214C93.486 244.413 93.1946 244.758 92.9646 245.249C92.7346 245.74 92.6273 246.422 92.6426 247.296C92.658 248.155 92.8113 248.829 93.1026 249.32C93.4093 249.811 93.7926 250.163 94.2526 250.378C94.7126 250.577 95.1956 250.677 95.7016 250.677C96.1463 250.677 96.568 250.616 96.9666 250.493C97.3806 250.355 97.787 250.171 98.1856 249.941L99.2896 252.011C98.7223 252.41 98.0783 252.724 97.3576 252.954C96.637 253.169 95.9316 253.276 95.2416 253.276ZM103.814 253L100.962 241.592H104.343L105.424 246.882C105.531 247.419 105.623 247.971 105.7 248.538C105.777 249.09 105.853 249.68 105.93 250.309H106.022C106.129 249.68 106.229 249.082 106.321 248.515C106.428 247.948 106.543 247.403 106.666 246.882L107.862 241.592H110.944L112.209 246.882C112.332 247.419 112.447 247.971 112.554 248.538C112.661 249.09 112.769 249.68 112.876 250.309H112.968C113.075 249.68 113.16 249.09 113.221 248.538C113.298 247.971 113.382 247.419 113.474 246.882L114.555 241.592H117.706L114.969 253H110.898L109.932 248.446C109.84 247.925 109.74 247.403 109.633 246.882C109.541 246.345 109.449 245.732 109.357 245.042H109.265C109.204 245.732 109.127 246.345 109.035 246.882C108.943 247.403 108.843 247.925 108.736 248.446L107.793 253H103.814ZM123.12 253.276C122.368 253.276 121.594 253.13 120.797 252.839C119.999 252.548 119.317 252.126 118.75 251.574L120.176 249.665C120.697 250.079 121.211 250.37 121.717 250.539C122.238 250.692 122.736 250.769 123.212 250.769C123.718 250.769 124.086 250.685 124.316 250.516C124.546 250.332 124.661 250.094 124.661 249.803C124.661 249.542 124.553 249.328 124.339 249.159C124.139 248.99 123.871 248.845 123.534 248.722C123.212 248.584 122.844 248.438 122.43 248.285C121.878 248.086 121.372 247.833 120.912 247.526C120.452 247.219 120.076 246.851 119.785 246.422C119.509 245.993 119.371 245.479 119.371 244.881C119.371 243.808 119.769 242.949 120.567 242.305C121.379 241.646 122.437 241.316 123.741 241.316C124.569 241.316 125.32 241.454 125.995 241.73C126.685 241.991 127.275 242.336 127.766 242.765L126.317 244.651C125.903 244.36 125.489 244.153 125.075 244.03C124.661 243.892 124.254 243.823 123.856 243.823C123.411 243.823 123.081 243.907 122.867 244.076C122.652 244.245 122.545 244.459 122.545 244.72C122.545 244.935 122.621 245.119 122.775 245.272C122.928 245.425 123.158 245.571 123.465 245.709C123.787 245.832 124.185 245.97 124.661 246.123C125.243 246.322 125.772 246.575 126.248 246.882C126.738 247.173 127.122 247.541 127.398 247.986C127.674 248.431 127.812 248.967 127.812 249.596C127.812 250.286 127.628 250.907 127.26 251.459C126.907 252.011 126.386 252.456 125.696 252.793C125.006 253.115 124.147 253.276 123.12 253.276Z" fill="white"/>
<rect x="188" y="24" width="247" height="90" rx="12" fill="#3B6B77"/>
<rect x="188" y="24" width="247" height="90" rx="12" stroke="#315862" stroke-width="2"/>
<path d="M254.12 60V45.004H258.352C259.885 45.004 261.212 45.2647 262.331 45.786C263.466 46.3073 264.34 47.12 264.953 48.224C265.566 49.3127 265.873 50.7157 265.873 52.433C265.873 54.1503 265.566 55.5687 264.953 56.688C264.34 57.8073 263.481 58.643 262.377 59.195C261.288 59.7317 260.016 60 258.559 60H254.12ZM257.501 57.263H258.145C259.004 57.263 259.747 57.1097 260.376 56.803C261.02 56.4963 261.518 55.9903 261.871 55.285C262.224 54.5797 262.4 53.629 262.4 52.433C262.4 51.237 262.224 50.3017 261.871 49.627C261.518 48.937 261.02 48.454 260.376 48.178C259.747 47.8867 259.004 47.741 258.145 47.741H257.501V57.263ZM273.55 60.276C272.461 60.276 271.48 60.0383 270.606 59.563C269.732 59.0877 269.042 58.4053 268.536 57.516C268.03 56.6267 267.777 55.5533 267.777 54.296C267.777 53.054 268.03 51.9883 268.536 51.099C269.057 50.2097 269.732 49.5273 270.56 49.052C271.388 48.5613 272.254 48.316 273.159 48.316C274.247 48.316 275.152 48.5613 275.873 49.052C276.593 49.5273 277.13 50.179 277.483 51.007C277.835 51.835 278.012 52.7627 278.012 53.79C278.012 54.0813 277.996 54.3727 277.966 54.664C277.935 54.94 277.904 55.1623 277.874 55.331H270.399L270.353 52.985H275.114C275.114 52.387 274.968 51.8963 274.677 51.513C274.385 51.1143 273.902 50.915 273.228 50.915C272.86 50.915 272.499 51.0147 272.147 51.214C271.794 51.4133 271.503 51.7583 271.273 52.249C271.043 52.7397 270.935 53.422 270.951 54.296C270.966 55.1547 271.119 55.8293 271.411 56.32C271.717 56.8107 272.101 57.1633 272.561 57.378C273.021 57.5773 273.504 57.677 274.01 57.677C274.454 57.677 274.876 57.6157 275.275 57.493C275.689 57.355 276.095 57.171 276.494 56.941L277.598 59.011C277.03 59.4097 276.386 59.724 275.666 59.954C274.945 60.1687 274.24 60.276 273.55 60.276ZM280.811 60V47.994C280.811 47.1813 280.941 46.4453 281.202 45.786C281.478 45.1267 281.922 44.5977 282.536 44.199C283.164 43.8003 283.992 43.601 285.02 43.601C285.495 43.601 285.932 43.647 286.331 43.739C286.729 43.831 287.051 43.923 287.297 44.015L286.63 46.43C286.246 46.3227 285.871 46.269 285.503 46.269C285.089 46.269 284.767 46.3993 284.537 46.66C284.307 46.9053 284.192 47.3193 284.192 47.902V60H280.811ZM279.132 51.237V48.73L281.041 48.592H286.239V51.237H279.132ZM292.956 60.276C291.867 60.276 290.886 60.0383 290.012 59.563C289.138 59.0877 288.448 58.4053 287.942 57.516C287.436 56.6267 287.183 55.5533 287.183 54.296C287.183 53.054 287.436 51.9883 287.942 51.099C288.463 50.2097 289.138 49.5273 289.966 49.052C290.794 48.5613 291.66 48.316 292.565 48.316C293.654 48.316 294.558 48.5613 295.279 49.052C296 49.5273 296.536 50.179 296.889 51.007C297.242 51.835 297.418 52.7627 297.418 53.79C297.418 54.0813 297.403 54.3727 297.372 54.664C297.341 54.94 297.311 55.1623 297.28 55.331H289.805L289.759 52.985H294.52C294.52 52.387 294.374 51.8963 294.083 51.513C293.792 51.1143 293.309 50.915 292.634 50.915C292.266 50.915 291.906 51.0147 291.553 51.214C291.2 51.4133 290.909 51.7583 290.679 52.249C290.449 52.7397 290.342 53.422 290.357 54.296C290.372 55.1547 290.526 55.8293 290.817 56.32C291.124 56.8107 291.507 57.1633 291.967 57.378C292.427 57.5773 292.91 57.677 293.416 57.677C293.861 57.677 294.282 57.6157 294.681 57.493C295.095 57.355 295.501 57.171 295.9 56.941L297.004 59.011C296.437 59.4097 295.793 59.724 295.072 59.954C294.351 60.1687 293.646 60.276 292.956 60.276ZM304.791 60.276C303.718 60.276 302.744 60.0383 301.87 59.563C301.012 59.0877 300.329 58.4053 299.823 57.516C299.333 56.6267 299.087 55.5533 299.087 54.296C299.087 53.0387 299.363 51.9653 299.915 51.076C300.467 50.1867 301.196 49.5043 302.1 49.029C303.005 48.5537 303.979 48.316 305.021 48.316C305.727 48.316 306.355 48.431 306.907 48.661C307.475 48.8757 307.958 49.167 308.356 49.535L306.769 51.628C306.57 51.4593 306.34 51.3213 306.079 51.214C305.834 51.1067 305.55 51.053 305.228 51.053C304.692 51.053 304.224 51.1833 303.825 51.444C303.427 51.7047 303.112 52.0803 302.882 52.571C302.652 53.0617 302.537 53.6367 302.537 54.296C302.537 54.9553 302.652 55.5303 302.882 56.021C303.112 56.5117 303.419 56.8873 303.802 57.148C304.201 57.4087 304.646 57.539 305.136 57.539C305.52 57.539 305.88 57.47 306.217 57.332C306.555 57.194 306.869 57.0177 307.16 56.803L308.494 58.873C308.019 59.3023 307.459 59.6473 306.815 59.908C306.171 60.1533 305.497 60.276 304.791 60.276ZM314.681 60.253C313.271 60.253 312.259 59.8467 311.645 59.034C311.032 58.206 310.725 57.1403 310.725 55.837V51.237H309.184V48.73L310.932 48.592L311.323 45.096H314.129V48.592H316.866V51.237H314.129V55.791C314.129 56.435 314.26 56.9027 314.52 57.194C314.796 57.47 315.157 57.608 315.601 57.608C315.785 57.608 315.969 57.5927 316.153 57.562C316.337 57.5313 316.514 57.4853 316.682 57.424L317.234 59.793C316.943 59.9157 316.575 60.023 316.13 60.115C315.701 60.207 315.218 60.253 314.681 60.253ZM322.227 60.276C321.475 60.276 320.701 60.1303 319.904 59.839C319.106 59.5477 318.424 59.126 317.857 58.574L319.283 56.665C319.804 57.079 320.318 57.3703 320.824 57.539C321.345 57.6923 321.843 57.769 322.319 57.769C322.825 57.769 323.193 57.6847 323.423 57.516C323.653 57.332 323.768 57.0943 323.768 56.803C323.768 56.5423 323.66 56.3277 323.446 56.159C323.246 55.9903 322.978 55.8447 322.641 55.722C322.319 55.584 321.951 55.4383 321.537 55.285C320.985 55.0857 320.479 54.8327 320.019 54.526C319.559 54.2193 319.183 53.8513 318.892 53.422C318.616 52.9927 318.478 52.479 318.478 51.881C318.478 50.8077 318.876 49.949 319.674 49.305C320.486 48.6457 321.544 48.316 322.848 48.316C323.676 48.316 324.427 48.454 325.102 48.73C325.792 48.9907 326.382 49.3357 326.873 49.765L325.424 51.651C325.01 51.3597 324.596 51.1527 324.182 51.03C323.768 50.892 323.361 50.823 322.963 50.823C322.518 50.823 322.188 50.9073 321.974 51.076C321.759 51.2447 321.652 51.4593 321.652 51.72C321.652 51.9347 321.728 52.1187 321.882 52.272C322.035 52.4253 322.265 52.571 322.572 52.709C322.894 52.8317 323.292 52.9697 323.768 53.123C324.35 53.3223 324.879 53.5753 325.355 53.882C325.845 54.1733 326.229 54.5413 326.505 54.986C326.781 55.4307 326.919 55.9673 326.919 56.596C326.919 57.286 326.735 57.907 326.367 58.459C326.014 59.011 325.493 59.4557 324.803 59.793C324.113 60.115 323.254 60.276 322.227 60.276ZM336.545 60.276C335.855 60.276 335.25 60.1227 334.728 59.816C334.222 59.5093 333.831 59.0953 333.555 58.574C333.279 58.0527 333.141 57.47 333.141 56.826C333.141 55.5993 333.647 54.6563 334.659 53.997C335.671 53.3223 337.304 52.87 339.558 52.64C339.543 52.3027 339.466 52.019 339.328 51.789C339.206 51.5437 339.014 51.3597 338.753 51.237C338.493 51.099 338.163 51.03 337.764 51.03C337.289 51.03 336.806 51.1143 336.315 51.283C335.825 51.4517 335.296 51.697 334.728 52.019L333.532 49.811C334.023 49.5043 334.529 49.2437 335.05 49.029C335.572 48.799 336.108 48.6227 336.66 48.5C337.228 48.3773 337.81 48.316 338.408 48.316C339.39 48.316 340.21 48.5077 340.869 48.891C341.544 49.259 342.058 49.8263 342.41 50.593C342.763 51.3443 342.939 52.3103 342.939 53.491V60H340.179L339.949 58.827H339.857C339.367 59.2563 338.853 59.609 338.316 59.885C337.78 60.1457 337.189 60.276 336.545 60.276ZM337.672 57.631C338.056 57.631 338.393 57.5467 338.684 57.378C338.976 57.2093 339.267 56.9793 339.558 56.688V54.756C338.761 54.8633 338.125 55.0013 337.649 55.17C337.189 55.3387 336.86 55.5457 336.66 55.791C336.476 56.021 336.384 56.2817 336.384 56.573C336.384 56.9257 336.499 57.194 336.729 57.378C336.975 57.5467 337.289 57.631 337.672 57.631ZM345.799 60V48.592H348.559L348.789 50.041H348.881C349.357 49.5657 349.893 49.1593 350.491 48.822C351.089 48.4847 351.772 48.316 352.538 48.316C353.796 48.316 354.7 48.73 355.252 49.558C355.804 50.3707 356.08 51.49 356.08 52.916V60H352.699V53.353C352.699 52.525 352.584 51.9577 352.354 51.651C352.14 51.3443 351.787 51.191 351.296 51.191C350.867 51.191 350.499 51.2907 350.192 51.49C349.886 51.674 349.548 51.9423 349.18 52.295V60H345.799ZM363.032 60.276C361.622 60.276 360.487 59.747 359.628 58.689C358.785 57.6157 358.363 56.1513 358.363 54.296C358.363 53.054 358.586 51.9883 359.03 51.099C359.49 50.2097 360.081 49.5273 360.801 49.052C361.537 48.5613 362.304 48.316 363.101 48.316C363.73 48.316 364.259 48.4233 364.688 48.638C365.118 48.8527 365.524 49.144 365.907 49.512L365.769 47.764V43.877H369.15V60H366.39L366.16 58.873H366.068C365.67 59.2717 365.202 59.609 364.665 59.885C364.129 60.1457 363.584 60.276 363.032 60.276ZM363.906 57.516C364.274 57.516 364.612 57.4393 364.918 57.286C365.225 57.1327 365.509 56.8643 365.769 56.481V51.812C365.478 51.536 365.171 51.3443 364.849 51.237C364.527 51.1297 364.205 51.076 363.883 51.076C363.515 51.076 363.178 51.191 362.871 51.421C362.565 51.651 362.312 52.0037 362.112 52.479C361.928 52.939 361.836 53.5293 361.836 54.25C361.836 55.3693 362.02 56.1973 362.388 56.734C362.756 57.2553 363.262 57.516 363.906 57.516ZM226.453 93.276C225.702 93.276 224.927 93.1303 224.13 92.839C223.333 92.5477 222.65 92.126 222.083 91.574L223.509 89.665C224.03 90.079 224.544 90.3703 225.05 90.539C225.571 90.6923 226.07 90.769 226.545 90.769C227.051 90.769 227.419 90.6847 227.649 90.516C227.879 90.332 227.994 90.0943 227.994 89.803C227.994 89.5423 227.887 89.3277 227.672 89.159C227.473 88.9903 227.204 88.8447 226.867 88.722C226.545 88.584 226.177 88.4383 225.763 88.285C225.211 88.0857 224.705 87.8327 224.245 87.526C223.785 87.2193 223.409 86.8513 223.118 86.422C222.842 85.9927 222.704 85.479 222.704 84.881C222.704 83.8077 223.103 82.949 223.9 82.305C224.713 81.6457 225.771 81.316 227.074 81.316C227.902 81.316 228.653 81.454 229.328 81.73C230.018 81.9907 230.608 82.3357 231.099 82.765L229.65 84.651C229.236 84.3597 228.822 84.1527 228.408 84.03C227.994 83.892 227.588 83.823 227.189 83.823C226.744 83.823 226.415 83.9073 226.2 84.076C225.985 84.2447 225.878 84.4593 225.878 84.72C225.878 84.9347 225.955 85.1187 226.108 85.272C226.261 85.4253 226.491 85.571 226.798 85.709C227.12 85.8317 227.519 85.9697 227.994 86.123C228.577 86.3223 229.106 86.5753 229.581 86.882C230.072 87.1733 230.455 87.5413 230.731 87.986C231.007 88.4307 231.145 88.9673 231.145 89.596C231.145 90.286 230.961 90.907 230.593 91.459C230.24 92.011 229.719 92.4557 229.029 92.793C228.339 93.115 227.48 93.276 226.453 93.276ZM238.398 93.276C237.31 93.276 236.328 93.0383 235.454 92.563C234.58 92.0877 233.89 91.4053 233.384 90.516C232.878 89.6267 232.625 88.5533 232.625 87.296C232.625 86.054 232.878 84.9883 233.384 84.099C233.906 83.2097 234.58 82.5273 235.408 82.052C236.236 81.5613 237.103 81.316 238.007 81.316C239.096 81.316 240.001 81.5613 240.721 82.052C241.442 82.5273 241.979 83.179 242.331 84.007C242.684 84.835 242.86 85.7627 242.86 86.79C242.86 87.0813 242.845 87.3727 242.814 87.664C242.784 87.94 242.753 88.1623 242.722 88.331H235.247L235.201 85.985H239.962C239.962 85.387 239.817 84.8963 239.525 84.513C239.234 84.1143 238.751 83.915 238.076 83.915C237.708 83.915 237.348 84.0147 236.995 84.214C236.643 84.4133 236.351 84.7583 236.121 85.249C235.891 85.7397 235.784 86.422 235.799 87.296C235.815 88.1547 235.968 88.8293 236.259 89.32C236.566 89.8107 236.949 90.1633 237.409 90.378C237.869 90.5773 238.352 90.677 238.858 90.677C239.303 90.677 239.725 90.6157 240.123 90.493C240.537 90.355 240.944 90.171 241.342 89.941L242.446 92.011C241.879 92.4097 241.235 92.724 240.514 92.954C239.794 93.1687 239.088 93.276 238.398 93.276ZM247.684 93L243.843 81.592H247.247L248.719 86.974C248.872 87.5413 249.018 88.1163 249.156 88.699C249.309 89.2817 249.463 89.8797 249.616 90.493H249.708C249.846 89.8797 249.992 89.2817 250.145 88.699C250.298 88.1163 250.444 87.5413 250.582 86.974L252.077 81.592H255.32L251.594 93H247.684ZM262.027 93.276C260.939 93.276 259.957 93.0383 259.083 92.563C258.209 92.0877 257.519 91.4053 257.013 90.516C256.507 89.6267 256.254 88.5533 256.254 87.296C256.254 86.054 256.507 84.9883 257.013 84.099C257.535 83.2097 258.209 82.5273 259.037 82.052C259.865 81.5613 260.732 81.316 261.636 81.316C262.725 81.316 263.63 81.5613 264.35 82.052C265.071 82.5273 265.608 83.179 265.96 84.007C266.313 84.835 266.489 85.7627 266.489 86.79C266.489 87.0813 266.474 87.3727 266.443 87.664C266.413 87.94 266.382 88.1623 266.351 88.331H258.876L258.83 85.985H263.591C263.591 85.387 263.446 84.8963 263.154 84.513C262.863 84.1143 262.38 83.915 261.705 83.915C261.337 83.915 260.977 84.0147 260.624 84.214C260.272 84.4133 259.98 84.7583 259.75 85.249C259.52 85.7397 259.413 86.422 259.428 87.296C259.444 88.1547 259.597 88.8293 259.888 89.32C260.195 89.8107 260.578 90.1633 261.038 90.378C261.498 90.5773 261.981 90.677 262.487 90.677C262.932 90.677 263.354 90.6157 263.752 90.493C264.166 90.355 264.573 90.171 264.971 89.941L266.075 92.011C265.508 92.4097 264.864 92.724 264.143 92.954C263.423 93.1687 262.717 93.276 262.027 93.276ZM268.826 93V81.592H271.586L271.816 83.593H271.908C272.322 82.8263 272.812 82.259 273.38 81.891C273.962 81.5077 274.553 81.316 275.151 81.316C275.473 81.316 275.741 81.339 275.956 81.385C276.17 81.4157 276.354 81.4693 276.508 81.546L275.864 84.421C275.68 84.375 275.503 84.3443 275.335 84.329C275.166 84.2983 274.959 84.283 274.714 84.283C274.284 84.283 273.832 84.4363 273.357 84.743C272.897 85.0497 272.513 85.594 272.207 86.376V93H268.826ZM277.99 93V81.592H281.371V93H277.99ZM279.669 79.913C279.101 79.913 278.641 79.752 278.289 79.43C277.936 79.108 277.76 78.6787 277.76 78.142C277.76 77.6053 277.936 77.176 278.289 76.854C278.641 76.532 279.101 76.371 279.669 76.371C280.236 76.371 280.696 76.532 281.049 76.854C281.401 77.176 281.578 77.6053 281.578 78.142C281.578 78.6787 281.401 79.108 281.049 79.43C280.696 79.752 280.236 79.913 279.669 79.913ZM288.739 93.253C287.328 93.253 286.316 92.8467 285.703 92.034C285.09 91.206 284.783 90.1403 284.783 88.837V84.237H283.242V81.73L284.99 81.592L285.381 78.096H288.187V81.592H290.924V84.237H288.187V88.791C288.187 89.435 288.317 89.9027 288.578 90.194C288.854 90.47 289.214 90.608 289.659 90.608C289.843 90.608 290.027 90.5927 290.211 90.562C290.395 90.5313 290.571 90.4853 290.74 90.424L291.292 92.793C291.001 92.9157 290.633 93.023 290.188 93.115C289.759 93.207 289.276 93.253 288.739 93.253ZM294.416 97.462C294.078 97.462 293.779 97.439 293.519 97.393C293.273 97.347 293.036 97.278 292.806 97.186L293.404 94.702C293.572 94.748 293.71 94.771 293.818 94.771C293.94 94.7863 294.055 94.794 294.163 94.794C294.73 94.794 295.167 94.6483 295.474 94.357C295.796 94.081 296.026 93.7283 296.164 93.299L296.325 92.701L291.932 81.592H295.336L296.969 86.491C297.137 87.0123 297.291 87.5413 297.429 88.078C297.567 88.6147 297.712 89.1667 297.866 89.734H297.958C298.08 89.1973 298.203 88.6607 298.326 88.124C298.464 87.572 298.602 87.0277 298.74 86.491L300.12 81.592H303.363L299.407 93.115C299.039 94.0657 298.64 94.863 298.211 95.507C297.797 96.151 297.283 96.634 296.67 96.956C296.072 97.2933 295.32 97.462 294.416 97.462ZM312.854 93.253C312.088 93.253 311.474 93.0997 311.014 92.793C310.57 92.471 310.248 92.0263 310.048 91.459C309.849 90.8763 309.749 90.2017 309.749 89.435V76.9H313.13V89.573C313.13 89.941 313.192 90.194 313.314 90.332C313.452 90.4547 313.598 90.516 313.751 90.516C313.813 90.516 313.866 90.516 313.912 90.516C313.974 90.5007 314.05 90.4853 314.142 90.47L314.556 92.977C314.372 93.0537 314.135 93.115 313.843 93.161C313.567 93.2223 313.238 93.253 312.854 93.253ZM319.205 93.276C318.515 93.276 317.91 93.1227 317.388 92.816C316.882 92.5093 316.491 92.0953 316.215 91.574C315.939 91.0527 315.801 90.47 315.801 89.826C315.801 88.5993 316.307 87.6563 317.319 86.997C318.331 86.3223 319.964 85.87 322.218 85.64C322.203 85.3027 322.126 85.019 321.988 84.789C321.866 84.5437 321.674 84.3597 321.413 84.237C321.153 84.099 320.823 84.03 320.424 84.03C319.949 84.03 319.466 84.1143 318.975 84.283C318.485 84.4517 317.956 84.697 317.388 85.019L316.192 82.811C316.683 82.5043 317.189 82.2437 317.71 82.029C318.232 81.799 318.768 81.6227 319.32 81.5C319.888 81.3773 320.47 81.316 321.068 81.316C322.05 81.316 322.87 81.5077 323.529 81.891C324.204 82.259 324.718 82.8263 325.07 83.593C325.423 84.3443 325.599 85.3103 325.599 86.491V93H322.839L322.609 91.827H322.517C322.027 92.2563 321.513 92.609 320.976 92.885C320.44 93.1457 319.849 93.276 319.205 93.276ZM320.332 90.631C320.716 90.631 321.053 90.5467 321.344 90.378C321.636 90.2093 321.927 89.9793 322.218 89.688V87.756C321.421 87.8633 320.785 88.0013 320.309 88.17C319.849 88.3387 319.52 88.5457 319.32 88.791C319.136 89.021 319.044 89.2817 319.044 89.573C319.044 89.9257 319.159 90.194 319.389 90.378C319.635 90.5467 319.949 90.631 320.332 90.631ZM328.459 93V81.592H331.219L331.449 83.041H331.541C332.017 82.5657 332.553 82.1593 333.151 81.822C333.749 81.4847 334.432 81.316 335.198 81.316C336.456 81.316 337.36 81.73 337.912 82.558C338.464 83.3707 338.74 84.49 338.74 85.916V93H335.359V86.353C335.359 85.525 335.244 84.9577 335.014 84.651C334.8 84.3443 334.447 84.191 333.956 84.191C333.527 84.191 333.159 84.2907 332.852 84.49C332.546 84.674 332.208 84.9423 331.84 85.295V93H328.459ZM345.692 97.853C344.803 97.853 343.99 97.7457 343.254 97.531C342.534 97.3317 341.959 97.0173 341.529 96.588C341.115 96.174 340.908 95.6297 340.908 94.955C340.908 94.4797 341.046 94.0503 341.322 93.667C341.614 93.2837 342.02 92.9463 342.541 92.655V92.563C342.25 92.3637 341.997 92.1107 341.782 91.804C341.583 91.482 341.483 91.091 341.483 90.631C341.483 90.217 341.606 89.826 341.851 89.458C342.097 89.0747 342.403 88.7527 342.771 88.492V88.4C342.357 88.124 341.997 87.7253 341.69 87.204C341.384 86.6827 341.23 86.0923 341.23 85.433C341.23 84.5283 341.453 83.7693 341.897 83.156C342.342 82.5427 342.925 82.0827 343.645 81.776C344.366 81.4693 345.133 81.316 345.945 81.316C346.267 81.316 346.574 81.339 346.865 81.385C347.172 81.431 347.456 81.5 347.716 81.592H351.879V84.053H349.97V84.145C350.124 84.3443 350.239 84.5667 350.315 84.812C350.392 85.042 350.43 85.3027 350.43 85.594C350.43 86.4527 350.231 87.1657 349.832 87.733C349.434 88.285 348.889 88.699 348.199 88.975C347.525 89.251 346.773 89.389 345.945 89.389C345.746 89.389 345.531 89.3737 345.301 89.343C345.071 89.297 344.826 89.2357 344.565 89.159C344.427 89.2817 344.32 89.4043 344.243 89.527C344.182 89.6497 344.151 89.8107 344.151 90.01C344.151 90.286 344.282 90.5007 344.542 90.654C344.803 90.792 345.248 90.861 345.876 90.861H347.716C349.127 90.861 350.2 91.091 350.936 91.551C351.688 91.9957 352.063 92.7317 352.063 93.759C352.063 94.541 351.803 95.2387 351.281 95.852C350.76 96.4807 350.024 96.9713 349.073 97.324C348.123 97.6767 346.996 97.853 345.692 97.853ZM345.945 87.342C346.252 87.342 346.52 87.273 346.75 87.135C346.98 86.9817 347.164 86.767 347.302 86.491C347.44 86.215 347.509 85.8623 347.509 85.433C347.509 84.8197 347.356 84.3597 347.049 84.053C346.758 83.7463 346.39 83.593 345.945 83.593C345.501 83.593 345.125 83.7463 344.818 84.053C344.527 84.3597 344.381 84.8197 344.381 85.433C344.381 85.8623 344.45 86.215 344.588 86.491C344.742 86.767 344.933 86.9817 345.163 87.135C345.393 87.273 345.654 87.342 345.945 87.342ZM346.221 95.737C346.727 95.737 347.172 95.6757 347.555 95.553C347.954 95.4303 348.268 95.2617 348.498 95.047C348.728 94.8323 348.843 94.5947 348.843 94.334C348.843 93.966 348.69 93.7207 348.383 93.598C348.077 93.4907 347.647 93.437 347.095 93.437H345.922C345.524 93.437 345.202 93.4217 344.956 93.391C344.726 93.3757 344.512 93.345 344.312 93.299C344.098 93.483 343.937 93.6593 343.829 93.828C343.737 94.012 343.691 94.2113 343.691 94.426C343.691 94.8553 343.921 95.1773 344.381 95.392C344.857 95.622 345.47 95.737 346.221 95.737ZM357.335 93.276C356.093 93.276 355.188 92.8697 354.621 92.057C354.069 91.229 353.793 90.102 353.793 88.676V81.592H357.174V88.239C357.174 89.067 357.289 89.6343 357.519 89.941C357.749 90.2477 358.109 90.401 358.6 90.401C359.014 90.401 359.374 90.3013 359.681 90.102C359.987 89.9027 360.302 89.5807 360.624 89.136V81.592H364.005V93H361.245L360.992 91.413H360.923C360.447 91.9803 359.926 92.4327 359.359 92.77C358.791 93.1073 358.117 93.276 357.335 93.276ZM369.855 93.276C369.165 93.276 368.559 93.1227 368.038 92.816C367.532 92.5093 367.141 92.0953 366.865 91.574C366.589 91.0527 366.451 90.47 366.451 89.826C366.451 88.5993 366.957 87.6563 367.969 86.997C368.981 86.3223 370.614 85.87 372.868 85.64C372.853 85.3027 372.776 85.019 372.638 84.789C372.515 84.5437 372.324 84.3597 372.063 84.237C371.802 84.099 371.473 84.03 371.074 84.03C370.599 84.03 370.116 84.1143 369.625 84.283C369.134 84.4517 368.605 84.697 368.038 85.019L366.842 82.811C367.333 82.5043 367.839 82.2437 368.36 82.029C368.881 81.799 369.418 81.6227 369.97 81.5C370.537 81.3773 371.12 81.316 371.718 81.316C372.699 81.316 373.52 81.5077 374.179 81.891C374.854 82.259 375.367 82.8263 375.72 83.593C376.073 84.3443 376.249 85.3103 376.249 86.491V93H373.489L373.259 91.827H373.167C372.676 92.2563 372.163 92.609 371.626 92.885C371.089 93.1457 370.499 93.276 369.855 93.276ZM370.982 90.631C371.365 90.631 371.703 90.5467 371.994 90.378C372.285 90.2093 372.577 89.9793 372.868 89.688V87.756C372.071 87.8633 371.434 88.0013 370.959 88.17C370.499 88.3387 370.169 88.5457 369.97 88.791C369.786 89.021 369.694 89.2817 369.694 89.573C369.694 89.9257 369.809 90.194 370.039 90.378C370.284 90.5467 370.599 90.631 370.982 90.631ZM383.18 97.853C382.29 97.853 381.478 97.7457 380.742 97.531C380.021 97.3317 379.446 97.0173 379.017 96.588C378.603 96.174 378.396 95.6297 378.396 94.955C378.396 94.4797 378.534 94.0503 378.81 93.667C379.101 93.2837 379.507 92.9463 380.029 92.655V92.563C379.737 92.3637 379.484 92.1107 379.27 91.804C379.07 91.482 378.971 91.091 378.971 90.631C378.971 90.217 379.093 89.826 379.339 89.458C379.584 89.0747 379.891 88.7527 380.259 88.492V88.4C379.845 88.124 379.484 87.7253 379.178 87.204C378.871 86.6827 378.718 86.0923 378.718 85.433C378.718 84.5283 378.94 83.7693 379.385 83.156C379.829 82.5427 380.412 82.0827 381.133 81.776C381.853 81.4693 382.62 81.316 383.433 81.316C383.755 81.316 384.061 81.339 384.353 81.385C384.659 81.431 384.943 81.5 385.204 81.592H389.367V84.053H387.458V84.145C387.611 84.3443 387.726 84.5667 387.803 84.812C387.879 85.042 387.918 85.3027 387.918 85.594C387.918 86.4527 387.718 87.1657 387.32 87.733C386.921 88.285 386.377 88.699 385.687 88.975C385.012 89.251 384.261 89.389 383.433 89.389C383.233 89.389 383.019 89.3737 382.789 89.343C382.559 89.297 382.313 89.2357 382.053 89.159C381.915 89.2817 381.807 89.4043 381.731 89.527C381.669 89.6497 381.639 89.8107 381.639 90.01C381.639 90.286 381.769 90.5007 382.03 90.654C382.29 90.792 382.735 90.861 383.364 90.861H385.204C386.614 90.861 387.688 91.091 388.424 91.551C389.175 91.9957 389.551 92.7317 389.551 93.759C389.551 94.541 389.29 95.2387 388.769 95.852C388.247 96.4807 387.511 96.9713 386.561 97.324C385.61 97.6767 384.483 97.853 383.18 97.853ZM383.433 87.342C383.739 87.342 384.008 87.273 384.238 87.135C384.468 86.9817 384.652 86.767 384.79 86.491C384.928 86.215 384.997 85.8623 384.997 85.433C384.997 84.8197 384.843 84.3597 384.537 84.053C384.245 83.7463 383.877 83.593 383.433 83.593C382.988 83.593 382.612 83.7463 382.306 84.053C382.014 84.3597 381.869 84.8197 381.869 85.433C381.869 85.8623 381.938 86.215 382.076 86.491C382.229 86.767 382.421 86.9817 382.651 87.135C382.881 87.273 383.141 87.342 383.433 87.342ZM383.709 95.737C384.215 95.737 384.659 95.6757 385.043 95.553C385.441 95.4303 385.756 95.2617 385.986 95.047C386.216 94.8323 386.331 94.5947 386.331 94.334C386.331 93.966 386.177 93.7207 385.871 93.598C385.564 93.4907 385.135 93.437 384.583 93.437H383.41C383.011 93.437 382.689 93.4217 382.444 93.391C382.214 93.3757 381.999 93.345 381.8 93.299C381.585 93.483 381.424 93.6593 381.317 93.828C381.225 94.012 381.179 94.2113 381.179 94.426C381.179 94.8553 381.409 95.1773 381.869 95.392C382.344 95.622 382.957 95.737 383.709 95.737ZM396.097 93.276C395.008 93.276 394.027 93.0383 393.153 92.563C392.279 92.0877 391.589 91.4053 391.083 90.516C390.577 89.6267 390.324 88.5533 390.324 87.296C390.324 86.054 390.577 84.9883 391.083 84.099C391.604 83.2097 392.279 82.5273 393.107 82.052C393.935 81.5613 394.801 81.316 395.706 81.316C396.794 81.316 397.699 81.5613 398.42 82.052C399.14 82.5273 399.677 83.179 400.03 84.007C400.382 84.835 400.559 85.7627 400.559 86.79C400.559 87.0813 400.543 87.3727 400.513 87.664C400.482 87.94 400.451 88.1623 400.421 88.331H392.946L392.9 85.985H397.661C397.661 85.387 397.515 84.8963 397.224 84.513C396.932 84.1143 396.449 83.915 395.775 83.915C395.407 83.915 395.046 84.0147 394.694 84.214C394.341 84.4133 394.05 84.7583 393.82 85.249C393.59 85.7397 393.482 86.422 393.498 87.296C393.513 88.1547 393.666 88.8293 393.958 89.32C394.264 89.8107 394.648 90.1633 395.108 90.378C395.568 90.5773 396.051 90.677 396.557 90.677C397.001 90.677 397.423 90.6157 397.822 90.493C398.236 90.355 398.642 90.171 399.041 89.941L400.145 92.011C399.577 92.4097 398.933 92.724 398.213 92.954C397.492 93.1687 396.787 93.276 396.097 93.276Z" fill="white"/>
<rect x="578" y="24" width="196" height="90" rx="12" fill="#5D7695"/>
<rect x="578" y="24" width="196" height="90" rx="12" stroke="#475363" stroke-width="2"/>
<path d="M627.896 60V45.004H633.301C634.359 45.004 635.325 45.1497 636.199 45.441C637.073 45.717 637.771 46.2 638.292 46.89C638.814 47.5647 639.074 48.4923 639.074 49.673C639.074 50.823 638.814 51.7583 638.292 52.479C637.771 53.1997 637.073 53.7363 636.199 54.089C635.325 54.4263 634.359 54.595 633.301 54.595H631.277V60H627.896ZM631.277 51.904H633.025C633.915 51.904 634.589 51.72 635.049 51.352C635.525 50.9687 635.762 50.409 635.762 49.673C635.762 48.937 635.525 48.4233 635.049 48.132C634.589 47.8407 633.915 47.695 633.025 47.695H631.277V51.904ZM636.015 60L632.68 53.721L635.026 51.536L639.81 60H636.015ZM646.607 60.276C645.519 60.276 644.537 60.0383 643.663 59.563C642.789 59.0877 642.099 58.4053 641.593 57.516C641.087 56.6267 640.834 55.5533 640.834 54.296C640.834 53.054 641.087 51.9883 641.593 51.099C642.115 50.2097 642.789 49.5273 643.617 49.052C644.445 48.5613 645.312 48.316 646.216 48.316C647.305 48.316 648.21 48.5613 648.93 49.052C649.651 49.5273 650.188 50.179 650.54 51.007C650.893 51.835 651.069 52.7627 651.069 53.79C651.069 54.0813 651.054 54.3727 651.023 54.664C650.993 54.94 650.962 55.1623 650.931 55.331H643.456L643.41 52.985H648.171C648.171 52.387 648.026 51.8963 647.734 51.513C647.443 51.1143 646.96 50.915 646.285 50.915C645.917 50.915 645.557 51.0147 645.204 51.214C644.852 51.4133 644.56 51.7583 644.33 52.249C644.1 52.7397 643.993 53.422 644.008 54.296C644.024 55.1547 644.177 55.8293 644.468 56.32C644.775 56.8107 645.158 57.1633 645.618 57.378C646.078 57.5773 646.561 57.677 647.067 57.677C647.512 57.677 647.934 57.6157 648.332 57.493C648.746 57.355 649.153 57.171 649.551 56.941L650.655 59.011C650.088 59.4097 649.444 59.724 648.723 59.954C648.003 60.1687 647.297 60.276 646.607 60.276ZM658.443 60.276C657.369 60.276 656.396 60.0383 655.522 59.563C654.663 59.0877 653.981 58.4053 653.475 57.516C652.984 56.6267 652.739 55.5533 652.739 54.296C652.739 53.0387 653.015 51.9653 653.567 51.076C654.119 50.1867 654.847 49.5043 655.752 49.029C656.656 48.5537 657.63 48.316 658.673 48.316C659.378 48.316 660.007 48.431 660.559 48.661C661.126 48.8757 661.609 49.167 662.008 49.535L660.421 51.628C660.221 51.4593 659.991 51.3213 659.731 51.214C659.485 51.1067 659.202 51.053 658.88 51.053C658.343 51.053 657.875 51.1833 657.477 51.444C657.078 51.7047 656.764 52.0803 656.534 52.571C656.304 53.0617 656.189 53.6367 656.189 54.296C656.189 54.9553 656.304 55.5303 656.534 56.021C656.764 56.5117 657.07 56.8873 657.454 57.148C657.852 57.4087 658.297 57.539 658.788 57.539C659.171 57.539 659.531 57.47 659.869 57.332C660.206 57.194 660.52 57.0177 660.812 56.803L662.146 58.873C661.67 59.3023 661.111 59.6473 660.467 59.908C659.823 60.1533 659.148 60.276 658.443 60.276ZM667.591 60.276C666.349 60.276 665.445 59.8697 664.877 59.057C664.325 58.229 664.049 57.102 664.049 55.676V48.592H667.43V55.239C667.43 56.067 667.545 56.6343 667.775 56.941C668.005 57.2477 668.366 57.401 668.856 57.401C669.27 57.401 669.631 57.3013 669.937 57.102C670.244 56.9027 670.558 56.5807 670.88 56.136V48.592H674.261V60H671.501L671.248 58.413H671.179C670.704 58.9803 670.183 59.4327 669.615 59.77C669.048 60.1073 668.373 60.276 667.591 60.276ZM677.237 60V48.592H679.997L680.227 50.593H680.319C680.733 49.8263 681.223 49.259 681.791 48.891C682.373 48.5077 682.964 48.316 683.562 48.316C683.884 48.316 684.152 48.339 684.367 48.385C684.581 48.4157 684.765 48.4693 684.919 48.546L684.275 51.421C684.091 51.375 683.914 51.3443 683.746 51.329C683.577 51.2983 683.37 51.283 683.125 51.283C682.695 51.283 682.243 51.4363 681.768 51.743C681.308 52.0497 680.924 52.594 680.618 53.376V60H677.237ZM686.401 60V48.592H689.161L689.391 50.593H689.483C689.897 49.8263 690.387 49.259 690.955 48.891C691.537 48.5077 692.128 48.316 692.726 48.316C693.048 48.316 693.316 48.339 693.531 48.385C693.745 48.4157 693.929 48.4693 694.083 48.546L693.439 51.421C693.255 51.375 693.078 51.3443 692.91 51.329C692.741 51.2983 692.534 51.283 692.289 51.283C691.859 51.283 691.407 51.4363 690.932 51.743C690.472 52.0497 690.088 52.594 689.782 53.376V60H686.401ZM695.565 60V48.592H698.946V60H695.565ZM697.244 46.913C696.676 46.913 696.216 46.752 695.864 46.43C695.511 46.108 695.335 45.6787 695.335 45.142C695.335 44.6053 695.511 44.176 695.864 43.854C696.216 43.532 696.676 43.371 697.244 43.371C697.811 43.371 698.271 43.532 698.624 43.854C698.976 44.176 699.153 44.6053 699.153 45.142C699.153 45.6787 698.976 46.108 698.624 46.43C698.271 46.752 697.811 46.913 697.244 46.913ZM701.921 60V48.592H704.681L704.911 50.041H705.003C705.479 49.5657 706.015 49.1593 706.613 48.822C707.211 48.4847 707.894 48.316 708.66 48.316C709.918 48.316 710.822 48.73 711.374 49.558C711.926 50.3707 712.202 51.49 712.202 52.916V60H708.821V53.353C708.821 52.525 708.706 51.9577 708.476 51.651C708.262 51.3443 707.909 51.191 707.418 51.191C706.989 51.191 706.621 51.2907 706.314 51.49C706.008 51.674 705.67 51.9423 705.302 52.295V60H701.921ZM719.154 64.853C718.265 64.853 717.452 64.7457 716.716 64.531C715.996 64.3317 715.421 64.0173 714.991 63.588C714.577 63.174 714.37 62.6297 714.37 61.955C714.37 61.4797 714.508 61.0503 714.784 60.667C715.076 60.2837 715.482 59.9463 716.003 59.655V59.563C715.712 59.3637 715.459 59.1107 715.244 58.804C715.045 58.482 714.945 58.091 714.945 57.631C714.945 57.217 715.068 56.826 715.313 56.458C715.559 56.0747 715.865 55.7527 716.233 55.492V55.4C715.819 55.124 715.459 54.7253 715.152 54.204C714.846 53.6827 714.692 53.0923 714.692 52.433C714.692 51.5283 714.915 50.7693 715.359 50.156C715.804 49.5427 716.387 49.0827 717.107 48.776C717.828 48.4693 718.595 48.316 719.407 48.316C719.729 48.316 720.036 48.339 720.327 48.385C720.634 48.431 720.918 48.5 721.178 48.592H725.341V51.053H723.432V51.145C723.586 51.3443 723.701 51.5667 723.777 51.812C723.854 52.042 723.892 52.3027 723.892 52.594C723.892 53.4527 723.693 54.1657 723.294 54.733C722.896 55.285 722.351 55.699 721.661 55.975C720.987 56.251 720.235 56.389 719.407 56.389C719.208 56.389 718.993 56.3737 718.763 56.343C718.533 56.297 718.288 56.2357 718.027 56.159C717.889 56.2817 717.782 56.4043 717.705 56.527C717.644 56.6497 717.613 56.8107 717.613 57.01C717.613 57.286 717.744 57.5007 718.004 57.654C718.265 57.792 718.71 57.861 719.338 57.861H721.178C722.589 57.861 723.662 58.091 724.398 58.551C725.15 58.9957 725.525 59.7317 725.525 60.759C725.525 61.541 725.265 62.2387 724.743 62.852C724.222 63.4807 723.486 63.9713 722.535 64.324C721.585 64.6767 720.458 64.853 719.154 64.853ZM719.407 54.342C719.714 54.342 719.982 54.273 720.212 54.135C720.442 53.9817 720.626 53.767 720.764 53.491C720.902 53.215 720.971 52.8623 720.971 52.433C720.971 51.8197 720.818 51.3597 720.511 51.053C720.22 50.7463 719.852 50.593 719.407 50.593C718.963 50.593 718.587 50.7463 718.28 51.053C717.989 51.3597 717.843 51.8197 717.843 52.433C717.843 52.8623 717.912 53.215 718.05 53.491C718.204 53.767 718.395 53.9817 718.625 54.135C718.855 54.273 719.116 54.342 719.407 54.342ZM719.683 62.737C720.189 62.737 720.634 62.6757 721.017 62.553C721.416 62.4303 721.73 62.2617 721.96 62.047C722.19 61.8323 722.305 61.5947 722.305 61.334C722.305 60.966 722.152 60.7207 721.845 60.598C721.539 60.4907 721.109 60.437 720.557 60.437H719.384C718.986 60.437 718.664 60.4217 718.418 60.391C718.188 60.3757 717.974 60.345 717.774 60.299C717.56 60.483 717.399 60.6593 717.291 60.828C717.199 61.012 717.153 61.2113 717.153 61.426C717.153 61.8553 717.383 62.1773 717.843 62.392C718.319 62.622 718.932 62.737 719.683 62.737ZM644.053 93.253C642.642 93.253 641.63 92.8467 641.017 92.034C640.403 91.206 640.097 90.1403 640.097 88.837V84.237H638.556V81.73L640.304 81.592L640.695 78.096H643.501V81.592H646.238V84.237H643.501V88.791C643.501 89.435 643.631 89.9027 643.892 90.194C644.168 90.47 644.528 90.608 644.973 90.608C645.157 90.608 645.341 90.5927 645.525 90.562C645.709 90.5313 645.885 90.4853 646.054 90.424L646.606 92.793C646.314 92.9157 645.946 93.023 645.502 93.115C645.072 93.207 644.589 93.253 644.053 93.253ZM648.464 93V76.877H651.845V80.833L651.684 82.88C652.114 82.4967 652.612 82.144 653.179 81.822C653.762 81.4847 654.437 81.316 655.203 81.316C656.461 81.316 657.365 81.73 657.917 82.558C658.469 83.3707 658.745 84.49 658.745 85.916V93H655.364V86.353C655.364 85.525 655.249 84.9577 655.019 84.651C654.805 84.3443 654.452 84.191 653.961 84.191C653.532 84.191 653.164 84.2907 652.857 84.49C652.551 84.674 652.213 84.9423 651.845 85.295V93H648.464ZM666.71 93.276C665.621 93.276 664.64 93.0383 663.766 92.563C662.892 92.0877 662.202 91.4053 661.696 90.516C661.19 89.6267 660.937 88.5533 660.937 87.296C660.937 86.054 661.19 84.9883 661.696 84.099C662.217 83.2097 662.892 82.5273 663.72 82.052C664.548 81.5613 665.414 81.316 666.319 81.316C667.408 81.316 668.312 81.5613 669.033 82.052C669.754 82.5273 670.29 83.179 670.643 84.007C670.996 84.835 671.172 85.7627 671.172 86.79C671.172 87.0813 671.157 87.3727 671.126 87.664C671.095 87.94 671.065 88.1623 671.034 88.331H663.559L663.513 85.985H668.274C668.274 85.387 668.128 84.8963 667.837 84.513C667.546 84.1143 667.063 83.915 666.388 83.915C666.02 83.915 665.66 84.0147 665.307 84.214C664.954 84.4133 664.663 84.7583 664.433 85.249C664.203 85.7397 664.096 86.422 664.111 87.296C664.126 88.1547 664.28 88.8293 664.571 89.32C664.878 89.8107 665.261 90.1633 665.721 90.378C666.181 90.5773 666.664 90.677 667.17 90.677C667.615 90.677 668.036 90.6157 668.435 90.493C668.849 90.355 669.255 90.171 669.654 89.941L670.758 92.011C670.191 92.4097 669.547 92.724 668.826 92.954C668.105 93.1687 667.4 93.276 666.71 93.276ZM673.508 93V81.592H676.268L676.498 83.064H676.59C677.05 82.5887 677.549 82.1823 678.085 81.845C678.637 81.4923 679.289 81.316 680.04 81.316C680.853 81.316 681.512 81.4847 682.018 81.822C682.524 82.144 682.915 82.6117 683.191 83.225C683.697 82.7037 684.234 82.259 684.801 81.891C685.369 81.5077 686.028 81.316 686.779 81.316C688.021 81.316 688.926 81.73 689.493 82.558C690.061 83.3707 690.344 84.49 690.344 85.916V93H686.963V86.353C686.963 85.525 686.848 84.9577 686.618 84.651C686.404 84.3443 686.051 84.191 685.56 84.191C685.269 84.191 684.962 84.283 684.64 84.467C684.318 84.6357 683.973 84.9117 683.605 85.295V93H680.224V86.353C680.224 85.525 680.109 84.9577 679.879 84.651C679.665 84.3443 679.312 84.191 678.821 84.191C678.239 84.191 677.595 84.559 676.889 85.295V93H673.508ZM698.335 93.276C697.246 93.276 696.265 93.0383 695.391 92.563C694.517 92.0877 693.827 91.4053 693.321 90.516C692.815 89.6267 692.562 88.5533 692.562 87.296C692.562 86.054 692.815 84.9883 693.321 84.099C693.842 83.2097 694.517 82.5273 695.345 82.052C696.173 81.5613 697.039 81.316 697.944 81.316C699.033 81.316 699.937 81.5613 700.658 82.052C701.379 82.5273 701.915 83.179 702.268 84.007C702.621 84.835 702.797 85.7627 702.797 86.79C702.797 87.0813 702.782 87.3727 702.751 87.664C702.72 87.94 702.69 88.1623 702.659 88.331H695.184L695.138 85.985H699.899C699.899 85.387 699.753 84.8963 699.462 84.513C699.171 84.1143 698.688 83.915 698.013 83.915C697.645 83.915 697.285 84.0147 696.932 84.214C696.579 84.4133 696.288 84.7583 696.058 85.249C695.828 85.7397 695.721 86.422 695.736 87.296C695.751 88.1547 695.905 88.8293 696.196 89.32C696.503 89.8107 696.886 90.1633 697.346 90.378C697.806 90.5773 698.289 90.677 698.795 90.677C699.24 90.677 699.661 90.6157 700.06 90.493C700.474 90.355 700.88 90.171 701.279 89.941L702.383 92.011C701.816 92.4097 701.172 92.724 700.451 92.954C699.73 93.1687 699.025 93.276 698.335 93.276ZM708.491 93.276C707.74 93.276 706.966 93.1303 706.168 92.839C705.371 92.5477 704.689 92.126 704.121 91.574L705.547 89.665C706.069 90.079 706.582 90.3703 707.088 90.539C707.61 90.6923 708.108 90.769 708.583 90.769C709.089 90.769 709.457 90.6847 709.687 90.516C709.917 90.332 710.032 90.0943 710.032 89.803C710.032 89.5423 709.925 89.3277 709.71 89.159C709.511 88.9903 709.243 88.8447 708.905 88.722C708.583 88.584 708.215 88.4383 707.801 88.285C707.249 88.0857 706.743 87.8327 706.283 87.526C705.823 87.2193 705.448 86.8513 705.156 86.422C704.88 85.9927 704.742 85.479 704.742 84.881C704.742 83.8077 705.141 82.949 705.938 82.305C706.751 81.6457 707.809 81.316 709.112 81.316C709.94 81.316 710.692 81.454 711.366 81.73C712.056 81.9907 712.647 82.3357 713.137 82.765L711.688 84.651C711.274 84.3597 710.86 84.1527 710.446 84.03C710.032 83.892 709.626 83.823 709.227 83.823C708.783 83.823 708.453 83.9073 708.238 84.076C708.024 84.2447 707.916 84.4593 707.916 84.72C707.916 84.9347 707.993 85.1187 708.146 85.272C708.3 85.4253 708.53 85.571 708.836 85.709C709.158 85.8317 709.557 85.9697 710.032 86.123C710.615 86.3223 711.144 86.5753 711.619 86.882C712.11 87.1733 712.493 87.5413 712.769 87.986C713.045 88.4307 713.183 88.9673 713.183 89.596C713.183 90.286 712.999 90.907 712.631 91.459C712.279 92.011 711.757 92.4557 711.067 92.793C710.377 93.115 709.519 93.276 708.491 93.276Z" fill="white"/>
<rect x="774" y="184" width="174" height="90" rx="12" fill="#708A81"/>
<rect x="774" y="184" width="174" height="90" rx="12" stroke="#465650" stroke-width="2"/>
<path d="M815.643 220.276C814.646 220.276 813.665 220.1 812.699 219.747C811.733 219.379 810.867 218.827 810.1 218.091L811.894 215.883C812.431 216.343 813.036 216.703 813.711 216.964C814.401 217.225 815.076 217.355 815.735 217.355C816.44 217.355 816.962 217.225 817.299 216.964C817.652 216.703 817.828 216.351 817.828 215.906C817.828 215.584 817.736 215.331 817.552 215.147C817.383 214.948 817.138 214.771 816.816 214.618C816.494 214.465 816.111 214.296 815.666 214.112L813.711 213.307C813.205 213.077 812.714 212.786 812.239 212.433C811.779 212.065 811.403 211.62 811.112 211.099C810.836 210.562 810.698 209.926 810.698 209.19C810.698 208.362 810.92 207.618 811.365 206.959C811.825 206.284 812.454 205.748 813.251 205.349C814.064 204.935 814.991 204.728 816.034 204.728C816.939 204.728 817.813 204.889 818.656 205.211C819.499 205.533 820.235 206.001 820.864 206.614L819.07 208.799C818.579 208.431 818.073 208.147 817.552 207.948C817.046 207.749 816.54 207.649 816.034 207.649C815.451 207.649 814.984 207.772 814.631 208.017C814.294 208.247 814.125 208.577 814.125 209.006C814.125 209.297 814.225 209.55 814.424 209.765C814.623 209.964 814.899 210.141 815.252 210.294C815.605 210.432 815.988 210.593 816.402 210.777L818.334 211.559C818.947 211.804 819.469 212.111 819.898 212.479C820.343 212.847 820.688 213.292 820.933 213.813C821.178 214.319 821.301 214.925 821.301 215.63C821.301 216.458 821.079 217.225 820.634 217.93C820.189 218.635 819.545 219.203 818.702 219.632C817.859 220.061 816.839 220.276 815.643 220.276ZM827.334 220.253C825.924 220.253 824.912 219.847 824.298 219.034C823.685 218.206 823.378 217.14 823.378 215.837V211.237H821.837V208.73L823.585 208.592L823.976 205.096H826.782V208.592H829.519V211.237H826.782V215.791C826.782 216.435 826.913 216.903 827.173 217.194C827.449 217.47 827.81 217.608 828.254 217.608C828.438 217.608 828.622 217.593 828.806 217.562C828.99 217.531 829.167 217.485 829.335 217.424L829.887 219.793C829.596 219.916 829.228 220.023 828.783 220.115C828.354 220.207 827.871 220.253 827.334 220.253ZM834.149 220.276C833.459 220.276 832.854 220.123 832.332 219.816C831.826 219.509 831.435 219.095 831.159 218.574C830.883 218.053 830.745 217.47 830.745 216.826C830.745 215.599 831.251 214.656 832.263 213.997C833.275 213.322 834.908 212.87 837.162 212.64C837.147 212.303 837.07 212.019 836.932 211.789C836.81 211.544 836.618 211.36 836.357 211.237C836.097 211.099 835.767 211.03 835.368 211.03C834.893 211.03 834.41 211.114 833.919 211.283C833.429 211.452 832.9 211.697 832.332 212.019L831.136 209.811C831.627 209.504 832.133 209.244 832.654 209.029C833.176 208.799 833.712 208.623 834.264 208.5C834.832 208.377 835.414 208.316 836.012 208.316C836.994 208.316 837.814 208.508 838.473 208.891C839.148 209.259 839.662 209.826 840.014 210.593C840.367 211.344 840.543 212.31 840.543 213.491V220H837.783L837.553 218.827H837.461C836.971 219.256 836.457 219.609 835.92 219.885C835.384 220.146 834.793 220.276 834.149 220.276ZM835.276 217.631C835.66 217.631 835.997 217.547 836.288 217.378C836.58 217.209 836.871 216.979 837.162 216.688V214.756C836.365 214.863 835.729 215.001 835.253 215.17C834.793 215.339 834.464 215.546 834.264 215.791C834.08 216.021 833.988 216.282 833.988 216.573C833.988 216.926 834.103 217.194 834.333 217.378C834.579 217.547 834.893 217.631 835.276 217.631ZM843.403 220V208.592H846.163L846.393 210.041H846.485C846.961 209.566 847.497 209.159 848.095 208.822C848.693 208.485 849.376 208.316 850.142 208.316C851.4 208.316 852.304 208.73 852.856 209.558C853.408 210.371 853.684 211.49 853.684 212.916V220H850.303V213.353C850.303 212.525 850.188 211.958 849.958 211.651C849.744 211.344 849.391 211.191 848.9 211.191C848.471 211.191 848.103 211.291 847.796 211.49C847.49 211.674 847.152 211.942 846.784 212.295V220H843.403ZM860.636 220.276C859.226 220.276 858.091 219.747 857.232 218.689C856.389 217.616 855.967 216.151 855.967 214.296C855.967 213.054 856.19 211.988 856.634 211.099C857.094 210.21 857.685 209.527 858.405 209.052C859.141 208.561 859.908 208.316 860.705 208.316C861.334 208.316 861.863 208.423 862.292 208.638C862.722 208.853 863.128 209.144 863.511 209.512L863.373 207.764V203.877H866.754V220H863.994L863.764 218.873H863.672C863.274 219.272 862.806 219.609 862.269 219.885C861.733 220.146 861.188 220.276 860.636 220.276ZM861.51 217.516C861.878 217.516 862.216 217.439 862.522 217.286C862.829 217.133 863.113 216.864 863.373 216.481V211.812C863.082 211.536 862.775 211.344 862.453 211.237C862.131 211.13 861.809 211.076 861.487 211.076C861.119 211.076 860.782 211.191 860.475 211.421C860.169 211.651 859.916 212.004 859.716 212.479C859.532 212.939 859.44 213.529 859.44 214.25C859.44 215.369 859.624 216.197 859.992 216.734C860.36 217.255 860.866 217.516 861.51 217.516ZM872.625 220.276C871.935 220.276 871.329 220.123 870.808 219.816C870.302 219.509 869.911 219.095 869.635 218.574C869.359 218.053 869.221 217.47 869.221 216.826C869.221 215.599 869.727 214.656 870.739 213.997C871.751 213.322 873.384 212.87 875.638 212.64C875.623 212.303 875.546 212.019 875.408 211.789C875.285 211.544 875.094 211.36 874.833 211.237C874.572 211.099 874.243 211.03 873.844 211.03C873.369 211.03 872.886 211.114 872.395 211.283C871.904 211.452 871.375 211.697 870.808 212.019L869.612 209.811C870.103 209.504 870.609 209.244 871.13 209.029C871.651 208.799 872.188 208.623 872.74 208.5C873.307 208.377 873.89 208.316 874.488 208.316C875.469 208.316 876.29 208.508 876.949 208.891C877.624 209.259 878.137 209.826 878.49 210.593C878.843 211.344 879.019 212.31 879.019 213.491V220H876.259L876.029 218.827H875.937C875.446 219.256 874.933 219.609 874.396 219.885C873.859 220.146 873.269 220.276 872.625 220.276ZM873.752 217.631C874.135 217.631 874.473 217.547 874.764 217.378C875.055 217.209 875.347 216.979 875.638 216.688V214.756C874.841 214.863 874.204 215.001 873.729 215.17C873.269 215.339 872.939 215.546 872.74 215.791C872.556 216.021 872.464 216.282 872.464 216.573C872.464 216.926 872.579 217.194 872.809 217.378C873.054 217.547 873.369 217.631 873.752 217.631ZM881.879 220V208.592H884.639L884.869 210.593H884.961C885.375 209.826 885.865 209.259 886.433 208.891C887.015 208.508 887.606 208.316 888.204 208.316C888.526 208.316 888.794 208.339 889.009 208.385C889.223 208.416 889.407 208.469 889.561 208.546L888.917 211.421C888.733 211.375 888.556 211.344 888.388 211.329C888.219 211.298 888.012 211.283 887.767 211.283C887.337 211.283 886.885 211.436 886.41 211.743C885.95 212.05 885.566 212.594 885.26 213.376V220H881.879ZM894.889 220.276C893.479 220.276 892.344 219.747 891.485 218.689C890.642 217.616 890.22 216.151 890.22 214.296C890.22 213.054 890.443 211.988 890.887 211.099C891.347 210.21 891.938 209.527 892.658 209.052C893.394 208.561 894.161 208.316 894.958 208.316C895.587 208.316 896.116 208.423 896.545 208.638C896.975 208.853 897.381 209.144 897.764 209.512L897.626 207.764V203.877H901.007V220H898.247L898.017 218.873H897.925C897.527 219.272 897.059 219.609 896.522 219.885C895.986 220.146 895.441 220.276 894.889 220.276ZM895.763 217.516C896.131 217.516 896.469 217.439 896.775 217.286C897.082 217.133 897.366 216.864 897.626 216.481V211.812C897.335 211.536 897.028 211.344 896.706 211.237C896.384 211.13 896.062 211.076 895.74 211.076C895.372 211.076 895.035 211.191 894.728 211.421C894.422 211.651 894.169 212.004 893.969 212.479C893.785 212.939 893.693 213.529 893.693 214.25C893.693 215.369 893.877 216.197 894.245 216.734C894.613 217.255 895.119 217.516 895.763 217.516ZM907.361 220.276C906.609 220.276 905.835 220.13 905.038 219.839C904.24 219.548 903.558 219.126 902.991 218.574L904.417 216.665C904.938 217.079 905.452 217.37 905.958 217.539C906.479 217.692 906.977 217.769 907.453 217.769C907.959 217.769 908.327 217.685 908.557 217.516C908.787 217.332 908.902 217.094 908.902 216.803C908.902 216.542 908.794 216.328 908.58 216.159C908.38 215.99 908.112 215.845 907.775 215.722C907.453 215.584 907.085 215.438 906.671 215.285C906.119 215.086 905.613 214.833 905.153 214.526C904.693 214.219 904.317 213.851 904.026 213.422C903.75 212.993 903.612 212.479 903.612 211.881C903.612 210.808 904.01 209.949 904.808 209.305C905.62 208.646 906.678 208.316 907.982 208.316C908.81 208.316 909.561 208.454 910.236 208.73C910.926 208.991 911.516 209.336 912.007 209.765L910.558 211.651C910.144 211.36 909.73 211.153 909.316 211.03C908.902 210.892 908.495 210.823 908.097 210.823C907.652 210.823 907.322 210.907 907.108 211.076C906.893 211.245 906.786 211.459 906.786 211.72C906.786 211.935 906.862 212.119 907.016 212.272C907.169 212.425 907.399 212.571 907.706 212.709C908.028 212.832 908.426 212.97 908.902 213.123C909.484 213.322 910.013 213.575 910.489 213.882C910.979 214.173 911.363 214.541 911.639 214.986C911.915 215.431 912.053 215.967 912.053 216.596C912.053 217.286 911.869 217.907 911.501 218.459C911.148 219.011 910.627 219.456 909.937 219.793C909.247 220.115 908.388 220.276 907.361 220.276ZM803.434 253.276C802.744 253.276 802.138 253.123 801.617 252.816C801.111 252.509 800.72 252.095 800.444 251.574C800.168 251.053 800.03 250.47 800.03 249.826C800.03 248.599 800.536 247.656 801.548 246.997C802.56 246.322 804.193 245.87 806.447 245.64C806.432 245.303 806.355 245.019 806.217 244.789C806.094 244.544 805.903 244.36 805.642 244.237C805.381 244.099 805.052 244.03 804.653 244.03C804.178 244.03 803.695 244.114 803.204 244.283C802.713 244.452 802.184 244.697 801.617 245.019L800.421 242.811C800.912 242.504 801.418 242.244 801.939 242.029C802.46 241.799 802.997 241.623 803.549 241.5C804.116 241.377 804.699 241.316 805.297 241.316C806.278 241.316 807.099 241.508 807.758 241.891C808.433 242.259 808.946 242.826 809.299 243.593C809.652 244.344 809.828 245.31 809.828 246.491V253H807.068L806.838 251.827H806.746C806.255 252.256 805.742 252.609 805.205 252.885C804.668 253.146 804.078 253.276 803.434 253.276ZM804.561 250.631C804.944 250.631 805.282 250.547 805.573 250.378C805.864 250.209 806.156 249.979 806.447 249.688V247.756C805.65 247.863 805.013 248.001 804.538 248.17C804.078 248.339 803.748 248.546 803.549 248.791C803.365 249.021 803.273 249.282 803.273 249.573C803.273 249.926 803.388 250.194 803.618 250.378C803.863 250.547 804.178 250.631 804.561 250.631ZM812.688 253V241.592H815.448L815.678 243.041H815.77C816.245 242.566 816.782 242.159 817.38 241.822C817.978 241.485 818.66 241.316 819.427 241.316C820.684 241.316 821.589 241.73 822.141 242.558C822.693 243.371 822.969 244.49 822.969 245.916V253H819.588V246.353C819.588 245.525 819.473 244.958 819.243 244.651C819.028 244.344 818.676 244.191 818.185 244.191C817.756 244.191 817.388 244.291 817.081 244.49C816.774 244.674 816.437 244.942 816.069 245.295V253H812.688ZM829.921 253.276C828.51 253.276 827.376 252.747 826.517 251.689C825.674 250.616 825.252 249.151 825.252 247.296C825.252 246.054 825.474 244.988 825.919 244.099C826.379 243.21 826.969 242.527 827.69 242.052C828.426 241.561 829.193 241.316 829.99 241.316C830.619 241.316 831.148 241.423 831.577 241.638C832.006 241.853 832.413 242.144 832.796 242.512L832.658 240.764V236.877H836.039V253H833.279L833.049 251.873H832.957C832.558 252.272 832.091 252.609 831.554 252.885C831.017 253.146 830.473 253.276 829.921 253.276ZM830.795 250.516C831.163 250.516 831.5 250.439 831.807 250.286C832.114 250.133 832.397 249.864 832.658 249.481V244.812C832.367 244.536 832.06 244.344 831.738 244.237C831.416 244.13 831.094 244.076 830.772 244.076C830.404 244.076 830.067 244.191 829.76 244.421C829.453 244.651 829.2 245.004 829.001 245.479C828.817 245.939 828.725 246.529 828.725 247.25C828.725 248.369 828.909 249.197 829.277 249.734C829.645 250.255 830.151 250.516 830.795 250.516ZM848.032 253.253C846.621 253.253 845.609 252.847 844.996 252.034C844.383 251.206 844.076 250.14 844.076 248.837V244.237H842.535V241.73L844.283 241.592L844.674 238.096H847.48V241.592H850.217V244.237H847.48V248.791C847.48 249.435 847.61 249.903 847.871 250.194C848.147 250.47 848.507 250.608 848.952 250.608C849.136 250.608 849.32 250.593 849.504 250.562C849.688 250.531 849.864 250.485 850.033 250.424L850.585 252.793C850.294 252.916 849.926 253.023 849.481 253.115C849.052 253.207 848.569 253.253 848.032 253.253ZM852.444 253V241.592H855.204L855.434 243.593H855.526C855.94 242.826 856.43 242.259 856.998 241.891C857.58 241.508 858.171 241.316 858.769 241.316C859.091 241.316 859.359 241.339 859.574 241.385C859.788 241.416 859.972 241.469 860.126 241.546L859.482 244.421C859.298 244.375 859.121 244.344 858.953 244.329C858.784 244.298 858.577 244.283 858.332 244.283C857.902 244.283 857.45 244.436 856.975 244.743C856.515 245.05 856.131 245.594 855.825 246.376V253H852.444ZM863.854 253.276C863.164 253.276 862.558 253.123 862.037 252.816C861.531 252.509 861.14 252.095 860.864 251.574C860.588 251.053 860.45 250.47 860.45 249.826C860.45 248.599 860.956 247.656 861.968 246.997C862.98 246.322 864.613 245.87 866.867 245.64C866.852 245.303 866.775 245.019 866.637 244.789C866.514 244.544 866.323 244.36 866.062 244.237C865.801 244.099 865.472 244.03 865.073 244.03C864.598 244.03 864.115 244.114 863.624 244.283C863.133 244.452 862.604 244.697 862.037 245.019L860.841 242.811C861.332 242.504 861.838 242.244 862.359 242.029C862.88 241.799 863.417 241.623 863.969 241.5C864.536 241.377 865.119 241.316 865.717 241.316C866.698 241.316 867.519 241.508 868.178 241.891C868.853 242.259 869.366 242.826 869.719 243.593C870.072 244.344 870.248 245.31 870.248 246.491V253H867.488L867.258 251.827H867.166C866.675 252.256 866.162 252.609 865.625 252.885C865.088 253.146 864.498 253.276 863.854 253.276ZM864.981 250.631C865.364 250.631 865.702 250.547 865.993 250.378C866.284 250.209 866.576 249.979 866.867 249.688V247.756C866.07 247.863 865.433 248.001 864.958 248.17C864.498 248.339 864.168 248.546 863.969 248.791C863.785 249.021 863.693 249.282 863.693 249.573C863.693 249.926 863.808 250.194 864.038 250.378C864.283 250.547 864.598 250.631 864.981 250.631ZM873.108 253V241.592H876.489V253H873.108ZM874.787 239.913C874.219 239.913 873.759 239.752 873.407 239.43C873.054 239.108 872.878 238.679 872.878 238.142C872.878 237.605 873.054 237.176 873.407 236.854C873.759 236.532 874.219 236.371 874.787 236.371C875.354 236.371 875.814 236.532 876.167 236.854C876.519 237.176 876.696 237.605 876.696 238.142C876.696 238.679 876.519 239.108 876.167 239.43C875.814 239.752 875.354 239.913 874.787 239.913ZM879.464 253V241.592H882.224L882.454 243.041H882.546C883.022 242.566 883.558 242.159 884.156 241.822C884.754 241.485 885.437 241.316 886.203 241.316C887.461 241.316 888.365 241.73 888.917 242.558C889.469 243.371 889.745 244.49 889.745 245.916V253H886.364V246.353C886.364 245.525 886.249 244.958 886.019 244.651C885.805 244.344 885.452 244.191 884.961 244.191C884.532 244.191 884.164 244.291 883.857 244.49C883.551 244.674 883.213 244.942 882.845 245.295V253H879.464ZM892.626 253V241.592H896.007V253H892.626ZM894.305 239.913C893.738 239.913 893.278 239.752 892.925 239.43C892.573 239.108 892.396 238.679 892.396 238.142C892.396 237.605 892.573 237.176 892.925 236.854C893.278 236.532 893.738 236.371 894.305 236.371C894.873 236.371 895.333 236.532 895.685 236.854C896.038 237.176 896.214 237.605 896.214 238.142C896.214 238.679 896.038 239.108 895.685 239.43C895.333 239.752 894.873 239.913 894.305 239.913ZM898.983 253V241.592H901.743L901.973 243.041H902.065C902.54 242.566 903.077 242.159 903.675 241.822C904.273 241.485 904.955 241.316 905.722 241.316C906.979 241.316 907.884 241.73 908.436 242.558C908.988 243.371 909.264 244.49 909.264 245.916V253H905.883V246.353C905.883 245.525 905.768 244.958 905.538 244.651C905.323 244.344 904.97 244.191 904.48 244.191C904.05 244.191 903.682 244.291 903.376 244.49C903.069 244.674 902.732 244.942 902.364 245.295V253H898.983ZM916.216 257.853C915.327 257.853 914.514 257.746 913.778 257.531C913.057 257.332 912.482 257.017 912.053 256.588C911.639 256.174 911.432 255.63 911.432 254.955C911.432 254.48 911.57 254.05 911.846 253.667C912.137 253.284 912.544 252.946 913.065 252.655V252.563C912.774 252.364 912.521 252.111 912.306 251.804C912.107 251.482 912.007 251.091 912.007 250.631C912.007 250.217 912.13 249.826 912.375 249.458C912.62 249.075 912.927 248.753 913.295 248.492V248.4C912.881 248.124 912.521 247.725 912.214 247.204C911.907 246.683 911.754 246.092 911.754 245.433C911.754 244.528 911.976 243.769 912.421 243.156C912.866 242.543 913.448 242.083 914.169 241.776C914.89 241.469 915.656 241.316 916.469 241.316C916.791 241.316 917.098 241.339 917.389 241.385C917.696 241.431 917.979 241.5 918.24 241.592H922.403V244.053H920.494V244.145C920.647 244.344 920.762 244.567 920.839 244.812C920.916 245.042 920.954 245.303 920.954 245.594C920.954 246.453 920.755 247.166 920.356 247.733C919.957 248.285 919.413 248.699 918.723 248.975C918.048 249.251 917.297 249.389 916.469 249.389C916.27 249.389 916.055 249.374 915.825 249.343C915.595 249.297 915.35 249.236 915.089 249.159C914.951 249.282 914.844 249.404 914.767 249.527C914.706 249.65 914.675 249.811 914.675 250.01C914.675 250.286 914.805 250.501 915.066 250.654C915.327 250.792 915.771 250.861 916.4 250.861H918.24C919.651 250.861 920.724 251.091 921.46 251.551C922.211 251.996 922.587 252.732 922.587 253.759C922.587 254.541 922.326 255.239 921.805 255.852C921.284 256.481 920.548 256.971 919.597 257.324C918.646 257.677 917.519 257.853 916.216 257.853ZM916.469 247.342C916.776 247.342 917.044 247.273 917.274 247.135C917.504 246.982 917.688 246.767 917.826 246.491C917.964 246.215 918.033 245.862 918.033 245.433C918.033 244.82 917.88 244.36 917.573 244.053C917.282 243.746 916.914 243.593 916.469 243.593C916.024 243.593 915.649 243.746 915.342 244.053C915.051 244.36 914.905 244.82 914.905 245.433C914.905 245.862 914.974 246.215 915.112 246.491C915.265 246.767 915.457 246.982 915.687 247.135C915.917 247.273 916.178 247.342 916.469 247.342ZM916.745 255.737C917.251 255.737 917.696 255.676 918.079 255.553C918.478 255.43 918.792 255.262 919.022 255.047C919.252 254.832 919.367 254.595 919.367 254.334C919.367 253.966 919.214 253.721 918.907 253.598C918.6 253.491 918.171 253.437 917.619 253.437H916.446C916.047 253.437 915.725 253.422 915.48 253.391C915.25 253.376 915.035 253.345 914.836 253.299C914.621 253.483 914.46 253.659 914.353 253.828C914.261 254.012 914.215 254.211 914.215 254.426C914.215 254.855 914.445 255.177 914.905 255.392C915.38 255.622 915.994 255.737 916.745 255.737Z" fill="white"/>
<rect x="401" y="364" width="167" height="90" rx="12" fill="#B38A66"/>
<rect x="401" y="364" width="167" height="90" rx="12" stroke="#654E3A" stroke-width="2"/>
<path d="M429.917 400V385.004H435.046C436.088 385.004 437.024 385.119 437.852 385.349C438.695 385.564 439.354 385.947 439.83 386.499C440.32 387.036 440.566 387.779 440.566 388.73C440.566 389.481 440.397 390.156 440.06 390.754C439.722 391.337 439.239 391.743 438.611 391.973V392.065C439.454 392.249 440.113 392.617 440.589 393.169C441.064 393.706 441.302 394.457 441.302 395.423C441.302 396.481 441.041 397.347 440.52 398.022C439.998 398.697 439.293 399.195 438.404 399.517C437.53 399.839 436.556 400 435.483 400H429.917ZM433.298 391.007H434.885C435.713 391.007 436.311 390.846 436.679 390.524C437.062 390.202 437.254 389.773 437.254 389.236C437.254 388.653 437.062 388.239 436.679 387.994C436.295 387.749 435.705 387.626 434.908 387.626H433.298V391.007ZM433.298 397.378H435.207C436.127 397.378 436.817 397.217 437.277 396.895C437.752 396.558 437.99 396.044 437.99 395.354C437.99 394.71 437.752 394.242 437.277 393.951C436.817 393.66 436.127 393.514 435.207 393.514H433.298V397.378ZM448.672 400.276C447.584 400.276 446.602 400.038 445.728 399.563C444.854 399.088 444.164 398.405 443.658 397.516C443.152 396.627 442.899 395.553 442.899 394.296C442.899 393.054 443.152 391.988 443.658 391.099C444.18 390.21 444.854 389.527 445.682 389.052C446.51 388.561 447.377 388.316 448.281 388.316C449.37 388.316 450.275 388.561 450.995 389.052C451.716 389.527 452.253 390.179 452.605 391.007C452.958 391.835 453.134 392.763 453.134 393.79C453.134 394.081 453.119 394.373 453.088 394.664C453.058 394.94 453.027 395.162 452.996 395.331H445.521L445.475 392.985H450.236C450.236 392.387 450.091 391.896 449.799 391.513C449.508 391.114 449.025 390.915 448.35 390.915C447.982 390.915 447.622 391.015 447.269 391.214C446.917 391.413 446.625 391.758 446.395 392.249C446.165 392.74 446.058 393.422 446.073 394.296C446.089 395.155 446.242 395.829 446.533 396.32C446.84 396.811 447.223 397.163 447.683 397.378C448.143 397.577 448.626 397.677 449.132 397.677C449.577 397.677 449.999 397.616 450.397 397.493C450.811 397.355 451.218 397.171 451.616 396.941L452.72 399.011C452.153 399.41 451.509 399.724 450.788 399.954C450.068 400.169 449.362 400.276 448.672 400.276ZM459.639 400.253C458.228 400.253 457.216 399.847 456.603 399.034C455.99 398.206 455.683 397.14 455.683 395.837V391.237H454.142V388.73L455.89 388.592L456.281 385.096H459.087V388.592H461.824V391.237H459.087V395.791C459.087 396.435 459.217 396.903 459.478 397.194C459.754 397.47 460.114 397.608 460.559 397.608C460.743 397.608 460.927 397.593 461.111 397.562C461.295 397.531 461.471 397.485 461.64 397.424L462.192 399.793C461.901 399.916 461.533 400.023 461.088 400.115C460.659 400.207 460.176 400.253 459.639 400.253ZM467.994 400.253C466.584 400.253 465.572 399.847 464.958 399.034C464.345 398.206 464.038 397.14 464.038 395.837V391.237H462.497V388.73L464.245 388.592L464.636 385.096H467.442V388.592H470.179V391.237H467.442V395.791C467.442 396.435 467.573 396.903 467.833 397.194C468.109 397.47 468.47 397.608 468.914 397.608C469.098 397.608 469.282 397.593 469.466 397.562C469.65 397.531 469.827 397.485 469.995 397.424L470.547 399.793C470.256 399.916 469.888 400.023 469.443 400.115C469.014 400.207 468.531 400.253 467.994 400.253ZM477.108 400.276C476.019 400.276 475.038 400.038 474.164 399.563C473.29 399.088 472.6 398.405 472.094 397.516C471.588 396.627 471.335 395.553 471.335 394.296C471.335 393.054 471.588 391.988 472.094 391.099C472.615 390.21 473.29 389.527 474.118 389.052C474.946 388.561 475.812 388.316 476.717 388.316C477.806 388.316 478.71 388.561 479.431 389.052C480.152 389.527 480.688 390.179 481.041 391.007C481.394 391.835 481.57 392.763 481.57 393.79C481.57 394.081 481.555 394.373 481.524 394.664C481.493 394.94 481.463 395.162 481.432 395.331H473.957L473.911 392.985H478.672C478.672 392.387 478.526 391.896 478.235 391.513C477.944 391.114 477.461 390.915 476.786 390.915C476.418 390.915 476.058 391.015 475.705 391.214C475.352 391.413 475.061 391.758 474.831 392.249C474.601 392.74 474.494 393.422 474.509 394.296C474.524 395.155 474.678 395.829 474.969 396.32C475.276 396.811 475.659 397.163 476.119 397.378C476.579 397.577 477.062 397.677 477.568 397.677C478.013 397.677 478.434 397.616 478.833 397.493C479.247 397.355 479.653 397.171 480.052 396.941L481.156 399.011C480.589 399.41 479.945 399.724 479.224 399.954C478.503 400.169 477.798 400.276 477.108 400.276ZM483.906 400V388.592H486.666L486.896 390.593H486.988C487.402 389.826 487.893 389.259 488.46 388.891C489.043 388.508 489.633 388.316 490.231 388.316C490.553 388.316 490.821 388.339 491.036 388.385C491.251 388.416 491.435 388.469 491.588 388.546L490.944 391.421C490.76 391.375 490.584 391.344 490.415 391.329C490.246 391.298 490.039 391.283 489.794 391.283C489.365 391.283 488.912 391.436 488.437 391.743C487.977 392.05 487.594 392.594 487.287 393.376V400H483.906ZM497.675 400V388.592H500.435L500.665 390.041H500.757C501.232 389.566 501.769 389.159 502.367 388.822C502.965 388.485 503.647 388.316 504.414 388.316C505.671 388.316 506.576 388.73 507.128 389.558C507.68 390.371 507.956 391.49 507.956 392.916V400H504.575V393.353C504.575 392.525 504.46 391.958 504.23 391.651C504.015 391.344 503.662 391.191 503.172 391.191C502.742 391.191 502.374 391.291 502.068 391.49C501.761 391.674 501.424 391.942 501.056 392.295V400H497.675ZM515.943 400.276C514.854 400.276 513.873 400.038 512.999 399.563C512.125 399.088 511.435 398.405 510.929 397.516C510.423 396.627 510.17 395.553 510.17 394.296C510.17 393.054 510.423 391.988 510.929 391.099C511.45 390.21 512.125 389.527 512.953 389.052C513.781 388.561 514.647 388.316 515.552 388.316C516.64 388.316 517.545 388.561 518.266 389.052C518.986 389.527 519.523 390.179 519.876 391.007C520.228 391.835 520.405 392.763 520.405 393.79C520.405 394.081 520.389 394.373 520.359 394.664C520.328 394.94 520.297 395.162 520.267 395.331H512.792L512.746 392.985H517.507C517.507 392.387 517.361 391.896 517.07 391.513C516.778 391.114 516.295 390.915 515.621 390.915C515.253 390.915 514.892 391.015 514.54 391.214C514.187 391.413 513.896 391.758 513.666 392.249C513.436 392.74 513.328 393.422 513.344 394.296C513.359 395.155 513.512 395.829 513.804 396.32C514.11 396.811 514.494 397.163 514.954 397.378C515.414 397.577 515.897 397.677 516.403 397.677C516.847 397.677 517.269 397.616 517.668 397.493C518.082 397.355 518.488 397.171 518.887 396.941L519.991 399.011C519.423 399.41 518.779 399.724 518.059 399.954C517.338 400.169 516.633 400.276 515.943 400.276ZM521.186 400L524.682 394.066L521.393 388.592H525.027L526.039 390.432C526.193 390.754 526.346 391.084 526.499 391.421C526.668 391.743 526.837 392.065 527.005 392.387H527.097C527.22 392.065 527.35 391.743 527.488 391.421C527.626 391.084 527.757 390.754 527.879 390.432L528.661 388.592H532.157L528.845 394.457L532.364 400H528.73L527.626 398.114C527.442 397.792 527.258 397.462 527.074 397.125C526.906 396.788 526.729 396.458 526.545 396.136H526.453C526.315 396.458 526.17 396.788 526.016 397.125C525.863 397.447 525.717 397.777 525.579 398.114L524.682 400H521.186ZM537.938 400.253C536.527 400.253 535.515 399.847 534.902 399.034C534.288 398.206 533.982 397.14 533.982 395.837V391.237H532.441V388.73L534.189 388.592L534.58 385.096H537.386V388.592H540.123V391.237H537.386V395.791C537.386 396.435 537.516 396.903 537.777 397.194C538.053 397.47 538.413 397.608 538.858 397.608C539.042 397.608 539.226 397.593 539.41 397.562C539.594 397.531 539.77 397.485 539.939 397.424L540.491 399.793C540.199 399.916 539.831 400.023 539.387 400.115C538.957 400.207 538.474 400.253 537.938 400.253ZM446.531 433V421.592H449.291L449.521 423.593H449.613C450.027 422.826 450.518 422.259 451.085 421.891C451.668 421.508 452.258 421.316 452.856 421.316C453.178 421.316 453.446 421.339 453.661 421.385C453.876 421.416 454.06 421.469 454.213 421.546L453.569 424.421C453.385 424.375 453.209 424.344 453.04 424.329C452.871 424.298 452.664 424.283 452.419 424.283C451.99 424.283 451.537 424.436 451.062 424.743C450.602 425.05 450.219 425.594 449.912 426.376V433H446.531ZM460.577 433.276C459.488 433.276 458.507 433.038 457.633 432.563C456.759 432.088 456.069 431.405 455.563 430.516C455.057 429.627 454.804 428.553 454.804 427.296C454.804 426.054 455.057 424.988 455.563 424.099C456.084 423.21 456.759 422.527 457.587 422.052C458.415 421.561 459.281 421.316 460.186 421.316C461.274 421.316 462.179 421.561 462.9 422.052C463.62 422.527 464.157 423.179 464.51 424.007C464.862 424.835 465.039 425.763 465.039 426.79C465.039 427.081 465.023 427.373 464.993 427.664C464.962 427.94 464.931 428.162 464.901 428.331H457.426L457.38 425.985H462.141C462.141 425.387 461.995 424.896 461.704 424.513C461.412 424.114 460.929 423.915 460.255 423.915C459.887 423.915 459.526 424.015 459.174 424.214C458.821 424.413 458.53 424.758 458.3 425.249C458.07 425.74 457.962 426.422 457.978 427.296C457.993 428.155 458.146 428.829 458.438 429.32C458.744 429.811 459.128 430.163 459.588 430.378C460.048 430.577 460.531 430.677 461.037 430.677C461.481 430.677 461.903 430.616 462.302 430.493C462.716 430.355 463.122 430.171 463.521 429.941L464.625 432.011C464.057 432.41 463.413 432.724 462.693 432.954C461.972 433.169 461.267 433.276 460.577 433.276ZM469.862 433L466.021 421.592H469.425L470.897 426.974C471.05 427.541 471.196 428.116 471.334 428.699C471.487 429.282 471.641 429.88 471.794 430.493H471.886C472.024 429.88 472.17 429.282 472.323 428.699C472.476 428.116 472.622 427.541 472.76 426.974L474.255 421.592H477.498L473.772 433H469.862ZM479.279 433V421.592H482.66V433H479.279ZM480.958 419.913C480.391 419.913 479.931 419.752 479.578 419.43C479.226 419.108 479.049 418.679 479.049 418.142C479.049 417.605 479.226 417.176 479.578 416.854C479.931 416.532 480.391 416.371 480.958 416.371C481.526 416.371 481.986 416.532 482.338 416.854C482.691 417.176 482.867 417.605 482.867 418.142C482.867 418.679 482.691 419.108 482.338 419.43C481.986 419.752 481.526 419.913 480.958 419.913ZM490.742 433.276C489.653 433.276 488.672 433.038 487.798 432.563C486.924 432.088 486.234 431.405 485.728 430.516C485.222 429.627 484.969 428.553 484.969 427.296C484.969 426.054 485.222 424.988 485.728 424.099C486.249 423.21 486.924 422.527 487.752 422.052C488.58 421.561 489.446 421.316 490.351 421.316C491.439 421.316 492.344 421.561 493.065 422.052C493.785 422.527 494.322 423.179 494.675 424.007C495.027 424.835 495.204 425.763 495.204 426.79C495.204 427.081 495.188 427.373 495.158 427.664C495.127 427.94 495.096 428.162 495.066 428.331H487.591L487.545 425.985H492.306C492.306 425.387 492.16 424.896 491.869 424.513C491.577 424.114 491.094 423.915 490.42 423.915C490.052 423.915 489.691 424.015 489.339 424.214C488.986 424.413 488.695 424.758 488.465 425.249C488.235 425.74 488.127 426.422 488.143 427.296C488.158 428.155 488.311 428.829 488.603 429.32C488.909 429.811 489.293 430.163 489.753 430.378C490.213 430.577 490.696 430.677 491.202 430.677C491.646 430.677 492.068 430.616 492.467 430.493C492.881 430.355 493.287 430.171 493.686 429.941L494.79 432.011C494.222 432.41 493.578 432.724 492.858 432.954C492.137 433.169 491.432 433.276 490.742 433.276ZM499.314 433L496.462 421.592H499.843L500.924 426.882C501.031 427.419 501.123 427.971 501.2 428.538C501.277 429.09 501.353 429.68 501.43 430.309H501.522C501.629 429.68 501.729 429.082 501.821 428.515C501.928 427.948 502.043 427.403 502.166 426.882L503.362 421.592H506.444L507.709 426.882C507.832 427.419 507.947 427.971 508.054 428.538C508.161 429.09 508.269 429.68 508.376 430.309H508.468C508.575 429.68 508.66 429.09 508.721 428.538C508.798 427.971 508.882 427.419 508.974 426.882L510.055 421.592H513.206L510.469 433H506.398L505.432 428.446C505.34 427.925 505.24 427.403 505.133 426.882C505.041 426.345 504.949 425.732 504.857 425.042H504.765C504.704 425.732 504.627 426.345 504.535 426.882C504.443 427.403 504.343 427.925 504.236 428.446L503.293 433H499.314ZM518.62 433.276C517.868 433.276 517.094 433.13 516.297 432.839C515.499 432.548 514.817 432.126 514.25 431.574L515.676 429.665C516.197 430.079 516.711 430.37 517.217 430.539C517.738 430.692 518.236 430.769 518.712 430.769C519.218 430.769 519.586 430.685 519.816 430.516C520.046 430.332 520.161 430.094 520.161 429.803C520.161 429.542 520.053 429.328 519.839 429.159C519.639 428.99 519.371 428.845 519.034 428.722C518.712 428.584 518.344 428.438 517.93 428.285C517.378 428.086 516.872 427.833 516.412 427.526C515.952 427.219 515.576 426.851 515.285 426.422C515.009 425.993 514.871 425.479 514.871 424.881C514.871 423.808 515.269 422.949 516.067 422.305C516.879 421.646 517.937 421.316 519.241 421.316C520.069 421.316 520.82 421.454 521.495 421.73C522.185 421.991 522.775 422.336 523.266 422.765L521.817 424.651C521.403 424.36 520.989 424.153 520.575 424.03C520.161 423.892 519.754 423.823 519.356 423.823C518.911 423.823 518.581 423.907 518.367 424.076C518.152 424.245 518.045 424.459 518.045 424.72C518.045 424.935 518.121 425.119 518.275 425.272C518.428 425.425 518.658 425.571 518.965 425.709C519.287 425.832 519.685 425.97 520.161 426.123C520.743 426.322 521.272 426.575 521.748 426.882C522.238 427.173 522.622 427.541 522.898 427.986C523.174 428.431 523.312 428.967 523.312 429.596C523.312 430.286 523.128 430.907 522.76 431.459C522.407 432.011 521.886 432.456 521.196 432.793C520.506 433.115 519.647 433.276 518.62 433.276Z" fill="white"/>
</svg>
