<svg width="1412" height="448" viewBox="0 0 1412 448" fill="none" xmlns="http://www.w3.org/2000/svg">
<g clip-path="url(#clip0_123_1475)">
<path opacity="0.9" d="M27.5 448C126 343 406 322.5 502 305.114C652.5 277.858 683 229.814 763 220.114C843 210.414 898 200.914 1003 190.114C1108 179.314 1346.5 158.3 1411.5 152.5" stroke="#97B1D2" stroke-width="2" stroke-linecap="round"/>
<path opacity="0.7" d="M-0.5 448C-0.5 448 564.7 285.414 743 282.114C921.3 278.814 1303.2 272.5 1411.5 270.5" stroke="#97B1D2" stroke-width="1.8" stroke-linecap="round" stroke-dasharray="2 10"/>
<path opacity="0.68" d="M20 448C20 448 264.7 401.814 403 400.114C541.3 398.414 613 395.414 723 390.114C833 384.814 951.3 374.814 1063 368.114C1174.7 361.414 1355.5 352.5 1410.5 349.5" stroke="#CDDDF0" stroke-width="1.6" stroke-linecap="round"/>
<path opacity="0.65" d="M758.5 218.614C984.5 260.114 1041.5 70.9314 1173.5 26.6144C1312.5 -20.0527 1377.2 62.5 1410.5 64" stroke="#CDDDF0" stroke-width="1.5" stroke-linecap="round" stroke-dasharray="2 9"/>
<path opacity="0.6" d="M1090.5 255.114C1108 294.614 1132 317.614 1179.5 311.614C1203 299.448 1265.6 274.514 1328 272.114" stroke="#CDDDF0" stroke-width="1.4" stroke-linecap="round" stroke-dasharray="3 8"/>
<path d="M1412 86.1142C1362.67 58.1142 1209.2 38.5142 990 184.114C770.8 329.714 466 394.114 229 370.114C173.667 363.076 50.8 368.7 2 447.5" stroke="#DD8E58" stroke-width="2"/>
<path d="M392 374.115C669 367.114 811 460.114 983 406.114C1145.82 354.995 1247 178.114 1237 76.1143" stroke="#DD8E58" stroke-width="2" stroke-dasharray="4 4"/>
<path d="M765 225C768.314 225 771 222.314 771 219C771 215.686 768.314 213 765 213C761.686 213 759 215.686 759 219C759 222.314 761.686 225 765 225Z" fill="#97B1D2"/>
<path d="M978 178C981.314 178 984 175.314 984 172C984 168.686 981.314 166 978 166C974.686 166 972 168.686 972 172C972 175.314 974.686 178 978 178Z" fill="#97B1D2"/>
<path opacity="0.18" d="M905.4 306.8C919.98 306.8 931.8 294.98 931.8 280.4C931.8 265.82 919.98 254 905.4 254C890.82 254 879 265.82 879 280.4C879 294.98 890.82 306.8 905.4 306.8Z" fill="white"/>
<path d="M905 291C911.075 291 916 286.075 916 280C916 273.925 911.075 269 905 269C898.925 269 894 273.925 894 280C894 286.075 898.925 291 905 291Z" fill="white"/>
<path d="M1053 193C1057.42 193 1061 189.418 1061 185C1061 180.582 1057.42 177 1053 177C1048.58 177 1045 180.582 1045 185C1045 189.418 1048.58 193 1053 193Z" fill="#97B1D2"/>
<path d="M1269 364C1273.42 364 1277 360.418 1277 356C1277 351.582 1273.42 348 1269 348C1264.58 348 1261 351.582 1261 356C1261 360.418 1264.58 364 1269 364Z" fill="#97B1D2"/>
<path opacity="0.18" d="M1237 99C1250.25 99 1261 88.2548 1261 75C1261 61.7452 1250.25 51 1237 51C1223.75 51 1213 61.7452 1213 75C1213 88.2548 1223.75 99 1237 99Z" fill="#DD8E58"/>
<path d="M1237 85C1242.52 85 1247 80.5228 1247 75C1247 69.4772 1242.52 65 1237 65C1231.48 65 1227 69.4772 1227 75C1227 80.5228 1231.48 85 1237 85Z" fill="#DD8E58"/>
<path d="M1174 322C1179.52 322 1184 317.523 1184 312C1184 306.477 1179.52 302 1174 302C1168.48 302 1164 306.477 1164 312C1164 317.523 1168.48 322 1174 322Z" stroke="#CDDDF0" stroke-width="2"/>
<path d="M1091 262C1093.76 262 1096 259.761 1096 257C1096 254.239 1093.76 252 1091 252C1088.24 252 1086 254.239 1086 257C1086 259.761 1088.24 262 1091 262Z" fill="#97B1D2"/>
<path d="M984 415C988.971 415 993 410.971 993 406C993 401.029 988.971 397 984 397C979.029 397 975 401.029 975 406C975 410.971 979.029 415 984 415Z" fill="white"/>
<path d="M984 409.8C986.099 409.8 987.8 408.099 987.8 406C987.8 403.902 986.099 402.2 984 402.2C981.902 402.2 980.2 403.902 980.2 406C980.2 408.099 981.902 409.8 984 409.8Z" fill="#012042"/>
<path d="M852 388C855.314 388 858 385.314 858 382C858 378.686 855.314 376 852 376C848.686 376 846 378.686 846 382C846 385.314 848.686 388 852 388Z" fill="#97B1D2"/>
<path d="M1331 277C1334.31 277 1337 274.314 1337 271C1337 267.686 1334.31 265 1331 265C1327.69 265 1325 267.686 1325 271C1325 274.314 1327.69 277 1331 277Z" fill="#97B1D2"/>
</g>
<defs>
<clipPath id="clip0_123_1475">
<rect width="1412" height="448" fill="white"/>
</clipPath>
</defs>
</svg>
