<svg width="239" height="155" viewBox="0 0 239 155" fill="none" xmlns="http://www.w3.org/2000/svg">
<path d="M120 70L40 22" stroke="#97B1D2" stroke-width="2.5"/>
<path d="M120 70L200 22" stroke="#97B1D2" stroke-width="2.5"/>
<path d="M120 70L18 88" stroke="#97B1D2" stroke-width="2.5"/>
<path d="M120 70L222 88" stroke="#97B1D2" stroke-width="2.5"/>
<path d="M120 70L66 136" stroke="#97B1D2" stroke-width="2.5"/>
<path d="M120 70L174 136" stroke="#97B1D2" stroke-width="2.5"/>
<path d="M40 35C47.1797 35 53 29.1797 53 22C53 14.8203 47.1797 9 40 9C32.8203 9 27 14.8203 27 22C27 29.1797 32.8203 35 40 35Z" fill="#708A81"/>
<path d="M200 35C207.18 35 213 29.1797 213 22C213 14.8203 207.18 9 200 9C192.82 9 187 14.8203 187 22C187 29.1797 192.82 35 200 35Z" fill="#5D7695"/>
<path d="M18 101C25.1797 101 31 95.1797 31 88C31 80.8203 25.1797 75 18 75C10.8203 75 5 80.8203 5 88C5 95.1797 10.8203 101 18 101Z" fill="#5D7695"/>
<path d="M222 101C229.18 101 235 95.1797 235 88C235 80.8203 229.18 75 222 75C214.82 75 209 80.8203 209 88C209 95.1797 214.82 101 222 101Z" fill="#708A81"/>
<path d="M66 149C73.1797 149 79 143.18 79 136C79 128.82 73.1797 123 66 123C58.8203 123 53 128.82 53 136C53 143.18 58.8203 149 66 149Z" fill="#708A81"/>
<path d="M174 149C181.18 149 187 143.18 187 136C187 128.82 181.18 123 174 123C166.82 123 161 128.82 161 136C161 143.18 166.82 149 174 149Z" fill="#5D7695"/>
<path d="M120 92C132.15 92 142 82.1503 142 70C142 57.8497 132.15 48 120 48C107.85 48 98 57.8497 98 70C98 82.1503 107.85 92 120 92Z" fill="#012042"/>
<path d="M120 79C124.971 79 129 74.9706 129 70C129 65.0294 124.971 61 120 61C115.029 61 111 65.0294 111 70C111 74.9706 115.029 79 120 79Z" fill="#DD8E58"/>
</svg>
