<svg width="282" height="140" viewBox="0 0 282 140" fill="none" xmlns="http://www.w3.org/2000/svg">
<g opacity="0.6">
<path d="M42 16L82 42" stroke="#7C7572" stroke-width="1.6"/>
<path d="M18 40L82 50" stroke="#7C7572" stroke-width="1.6"/>
<path d="M36 88L82 102" stroke="#7C7572" stroke-width="1.6"/>
<path d="M14 120L82 110" stroke="#7C7572" stroke-width="1.6"/>
</g>
<path d="M36 94C39.3137 94 42 91.3137 42 88C42 84.6863 39.3137 82 36 82C32.6863 82 30 84.6863 30 88C30 91.3137 32.6863 94 36 94Z" fill="#163252"/>
<path d="M86 30C86 27.7909 87.7909 26 90 26H262C268.627 26 274 31.3726 274 38V58C274 64.6274 268.627 70 262 70H90C87.7909 70 86 68.2091 86 66V30Z" fill="#F1E6DD"/>
<path d="M92 29C92 27.3431 90.6569 26 89 26C87.3431 26 86 27.3431 86 29V67C86 68.6569 87.3431 70 89 70C90.6569 70 92 68.6569 92 67V29Z" fill="#DD8E58"/>
<path d="M118 57C122.971 57 127 52.9706 127 48C127 43.0294 122.971 39 118 39C113.029 39 109 43.0294 109 48C109 52.9706 113.029 57 118 57Z" stroke="#012042" stroke-width="2.5"/>
<path d="M118 53C120.761 53 123 50.7614 123 48C123 45.2386 120.761 43 118 43C115.239 43 113 45.2386 113 48C113 50.7614 115.239 53 118 53Z" fill="#DD8E58"/>
<path d="M152 54C155.314 54 158 51.3137 158 48C158 44.6863 155.314 42 152 42C148.686 42 146 44.6863 146 48C146 51.3137 148.686 54 152 54Z" fill="#DD8E58"/>
<path d="M183 54C186.314 54 189 51.3137 189 48C189 44.6863 186.314 42 183 42C179.686 42 177 44.6863 177 48C177 51.3137 179.686 54 183 54Z" fill="#DD8E58"/>
<path d="M86 86C86 83.7909 87.7909 82 90 82H262C268.627 82 274 87.3726 274 94V114C274 120.627 268.627 126 262 126H90C87.7909 126 86 124.209 86 122V86Z" fill="#E3E8E6"/>
<path d="M92 85C92 83.3431 90.6569 82 89 82C87.3431 82 86 83.3431 86 85V123C86 124.657 87.3431 126 89 126C90.6569 126 92 124.657 92 123V85Z" fill="#647B73"/>
<path d="M115 110C118.314 110 121 107.314 121 104C121 100.686 118.314 98 115 98C111.686 98 109 100.686 109 104C109 107.314 111.686 110 115 110Z" fill="#647B73"/>
<path d="M146 110C149.314 110 152 107.314 152 104C152 100.686 149.314 98 146 98C142.686 98 140 100.686 140 104C140 107.314 142.686 110 146 110Z" fill="#647B73"/>
<path d="M177 110C180.314 110 183 107.314 183 104C183 100.686 180.314 98 177 98C173.686 98 171 100.686 171 104C171 107.314 173.686 110 177 110Z" fill="#647B73"/>
<path d="M208 110C211.314 110 214 107.314 214 104C214 100.686 211.314 98 208 98C204.686 98 202 100.686 202 104C202 107.314 204.686 110 208 110Z" fill="#647B73"/>
<path d="M239 110C242.314 110 245 107.314 245 104C245 100.686 242.314 98 239 98C235.686 98 233 100.686 233 104C233 107.314 235.686 110 239 110Z" fill="#647B73"/>
<path d="M18 47C21.866 47 25 43.866 25 40C25 36.134 21.866 33 18 33C14.134 33 11 36.134 11 40C11 43.866 14.134 47 18 47Z" fill="#607897"/>
<path d="M14 125C16.7614 125 19 122.761 19 120C19 117.239 16.7614 115 14 115C11.2386 115 9 117.239 9 120C9 122.761 11.2386 125 14 125Z" fill="#607897"/>
<path d="M42 21C44.7614 21 47 18.7614 47 16C47 13.2386 44.7614 11 42 11C39.2386 11 37 13.2386 37 16C37 18.7614 39.2386 21 42 21Z" fill="#647B73"/>
</svg>
