<svg width="282" height="140" viewBox="0 0 282 140" fill="none" xmlns="http://www.w3.org/2000/svg">
  <g opacity="0.68" stroke="#7C7572" stroke-width="1.6">
    <path d="M16 20L54 70"/>
    <path d="M32 47L54 70"/>
    <path d="M20 91L54 70"/>
    <path d="M36 118L54 70"/>
  </g>
  <g>
    <circle cx="16" cy="20" r="6" fill="#5D7695"/>
    <circle cx="32" cy="47" r="5" fill="#708A81"/>
    <circle cx="20" cy="91" r="7" fill="#163252"/>
    <circle cx="36" cy="118" r="5" fill="#DD8E58"/>
  </g>
  <path d="M54 70H264" stroke="#97B1D2" stroke-width="2.5" stroke-linecap="round"/>
  <g stroke="#012042" stroke-width="2" stroke-linecap="round" stroke-linejoin="round">
    <path d="M104 66L108 70L104 74"/>
    <path d="M160 66L164 70L160 74"/>
    <path d="M216 66L220 70L216 74"/>
  </g>
  <g>
    <circle cx="76" cy="70" r="22" fill="#E3E8E6"/>
    <circle cx="76" cy="70" r="10" fill="#708A81"/>
    <circle cx="76" cy="70" r="3.5" fill="#F8F6F2"/>
    <circle cx="132" cy="70" r="22" fill="#CBD3DD"/>
    <circle cx="132" cy="70" r="10" fill="#5D7695"/>
    <circle cx="132" cy="70" r="3.5" fill="#F8F6F2"/>
    <circle cx="188" cy="70" r="22" fill="#F1E6DD"/>
    <circle cx="188" cy="70" r="10" fill="#C2956E"/>
    <circle cx="188" cy="70" r="3.5" fill="#F8F6F2"/>
    <circle cx="244" cy="70" r="22" fill="#EFCBB2"/>
    <circle cx="244" cy="70" r="10" fill="#DD8E58"/>
    <circle cx="244" cy="70" r="3.5" fill="#F8F6F2"/>
  </g>
</svg>
