<svg width="300" height="140" viewBox="0 0 300 140" fill="none" xmlns="http://www.w3.org/2000/svg">
  <g opacity="0.62" stroke="#7C7572" stroke-width="1.6">
    <path d="M28 32L84 70"/>
    <path d="M28 70H84"/>
    <path d="M28 108L84 70"/>
  </g>
  <circle cx="28" cy="32" r="7" fill="#5D7695"/>
  <circle cx="28" cy="70" r="7" fill="#708A81"/>
  <circle cx="28" cy="108" r="7" fill="#C2956E"/>
  <rect x="84" y="38" width="56" height="64" rx="12" fill="#F1E6DD" stroke="#DD8E58" stroke-width="2"/>
  <path d="M112 50L115.2 60.8L126 64L115.2 67.2L112 78L108.8 67.2L98 64L108.8 60.8L112 50Z" fill="#DD8E58"/>
  <circle cx="112" cy="88" r="5" fill="#012042"/>
  <path d="M140 70H176" stroke="#97B1D2" stroke-width="2.5" stroke-linecap="round"/>
  <path d="M171 65L176 70L171 75" stroke="#012042" stroke-width="2" stroke-linecap="round" stroke-linejoin="round"/>
  <rect x="176" y="38" width="56" height="64" rx="12" fill="#E3E8E6" stroke="#708A81" stroke-width="2"/>
  <circle cx="204" cy="57" r="6" fill="#97B1D2"/>
  <path d="M192 79C193.7 71.1 197.6 67 204 67C210.4 67 214.3 71.1 216 79H192Z" fill="#97B1D2"/>
  <circle cx="204" cy="88" r="5" fill="#012042"/>
  <path d="M232 70H268" stroke="#97B1D2" stroke-width="2.5" stroke-linecap="round"/>
  <path d="M263 65L268 70L263 75" stroke="#012042" stroke-width="2" stroke-linecap="round" stroke-linejoin="round"/>
  <circle cx="280" cy="70" r="9" fill="#012042"/>
  <path d="M276 70L279 73L285 66" stroke="#F8F6F2" stroke-width="2" stroke-linecap="round" stroke-linejoin="round"/>
</svg>
